<?xml version="1.0" standalone="no"?>
<!DOCTYPE svg PUBLIC "-//W3C//DTD SVG 1.1//EN" "http://www.w3.org/Graphics/SVG/1.1/DTD/svg11.dtd" >
<svg xmlns="http://www.w3.org/2000/svg" xmlns:xlink="http://www.w3.org/1999/xlink" version="1.1">
<metadata>
Created by FontForge 20150102 at Wed Mar 11 02:38:01 2015
 By uniteet7
(c) 1987, 1991, 1999, 2002 Adobe Systems Incorporated. All rights reserved. (c) 1981, 1999, 2002 Heidelberger Druckmaschinen AG. All rights reserved.
</metadata>
<defs>
<font id="UniversLTStdLightCn" horiz-adv-x="444" >
  <font-face 
    font-family="UniversLTStdLightCn"
    font-weight="300"
    font-stretch="condensed"
    units-per-em="1000"
    panose-1="2 11 4 6 2 2 2 4 2 4"
    ascent="724"
    descent="-276"
    x-height="505"
    cap-height="722"
    bbox="-163 -250 1000 953"
    underline-thickness="50"
    underline-position="-50"
    unicode-range="U+0020-FB02"
  />
<missing-glyph horiz-adv-x="500" 
d="M0 0v700h500v-700h-500zM250 395l170 255h-340zM280 350l170 -255v510zM80 50h340l-170 255zM50 605v-510l170 255z" />
    <glyph glyph-name="f_i" unicode="fi" 
d="M369 0h-60v505h60v-505zM376 646h-74v76h74v-76zM100 0v457h-81v48h81v85q0 136 129 136q4 0 34 -4v-50h-45q-20 0 -33 -7.5t-18 -22.5t-6 -25t-1 -26v-86h102v-48h-102v-457h-60z" />
    <glyph glyph-name="f_l" unicode="fl" 
d="M100 0v457h-81v48h81v85q0 136 129 136q4 0 34 -4v-50h-45q-20 0 -33 -7.5t-18 -22.5t-6 -25t-1 -26v-86h102v-48h-102v-457h-60zM368 0h-60v722h60v-722z" />
    <glyph glyph-name=".notdef" horiz-adv-x="500" 
d="M0 0v700h500v-700h-500zM250 395l170 255h-340zM280 350l170 -255v510zM80 50h340l-170 255zM50 605v-510l170 255z" />
    <glyph glyph-name=".null" horiz-adv-x="0" 
 />
    <glyph glyph-name="nonmarkingreturn" horiz-adv-x="333" 
 />
    <glyph glyph-name="space" unicode=" " horiz-adv-x="222" 
 />
    <glyph glyph-name="exclam" unicode="!" horiz-adv-x="333" 
d="M129 0v76h74v-76h-74zM192 170h-52l-9 552h70z" />
    <glyph glyph-name="quotedbl" unicode="&#x22;" horiz-adv-x="309" 
d="M73 515v207h52v-207h-52zM184 515v207h52v-207h-52z" />
    <glyph glyph-name="numbersign" unicode="#" 
d="M32 0l70 233h-110l17 48h107l37 123h-109l17 48h105l72 245h52l-72 -245h77l71 245h52l-71 -245h105l-16 -48h-102l-37 -123h103l-16 -48h-100l-68 -233h-55l70 233h-77l-70 -233h-52zM167 281h77l38 123h-76z" />
    <glyph glyph-name="dollar" unicode="$" 
d="M203 404v250q-93 -12 -93 -107q0 -50 24 -82.5t69 -60.5zM243 310v-267q51 4 75.5 30t24.5 83q0 54 -26 89t-74 65zM243 -11v-78h-40v78q-86 5 -125.5 53.5t-39.5 149.5h64q0 -74 21 -108.5t80 -40.5v290q-40 23 -59 35.5t-46.5 38.5t-39.5 58.5t-12 74.5
q0 77 42.5 118.5t114.5 49.5v63h40v-63q86 -3 124.5 -50t35.5 -141h-64q0 67 -20 100t-76 37v-272q80 -44 108 -71q56 -54 56 -138q0 -173 -164 -184z" />
    <glyph glyph-name="percent" unicode="%" horiz-adv-x="778" 
d="M205 344q-74 0 -102 48t-28 128q0 39 5 68.5t17.5 58.5t40 45t67.5 16q69 0 99.5 -47.5t30.5 -122.5q0 -31 -2.5 -55.5t-10.5 -51.5t-21.5 -45t-38 -30t-57.5 -12zM205 392q26 0 43 12.5t24 35.5t9 41.5t2 44.5q0 134 -78 134t-78 -134q0 -26 2 -44.5t9 -41.5t24 -35.5
t43 -12.5zM573 -11q-74 0 -102 48t-28 128q0 39 5 68.5t17.5 58.5t40 45t67.5 16q69 0 99.5 -47.5t30.5 -122.5q0 -31 -2.5 -55.5t-10.5 -51.5t-21.5 -45t-38 -30t-57.5 -12zM573 37q26 0 43 12.5t24 35.5t9 41.5t2 44.5q0 134 -78 134t-78 -134q0 -26 2 -44.5t9 -41.5
t24 -35.5t43 -12.5zM256 -39h-46l304 761h46z" />
    <glyph glyph-name="ampersand" unicode="&#x26;" horiz-adv-x="611" 
d="M420 122l-192 232q-59 -42 -82.5 -73.5t-23.5 -90.5q0 -150 154 -150q44 0 84 22t60 60zM241 431q34 25 53.5 42.5t36 48t16.5 65.5q0 95 -88 95q-44 0 -70.5 -24t-26.5 -68q0 -11 1.5 -21t2.5 -18t5 -17.5t6 -15t8.5 -15.5t8.5 -14t10.5 -14.5t11 -13.5t13 -15t12.5 -15
zM515 0l-54 72q-42 -50 -91 -68t-121 -18q-82 0 -136.5 48t-54.5 155q0 33 7 59.5t14.5 43t29 38t34 31.5t47.5 36q-6 8 -23 28t-23 27.5t-17.5 25t-16 30t-8.5 31t-4 38.5q0 82 41 120.5t125 38.5q72 0 109.5 -34.5t37.5 -118.5q0 -18 -3.5 -34.5t-7 -28.5t-14 -26.5
t-16 -22.5t-21 -22.5t-21 -19.5t-25 -21t-24.5 -20l170 -206q12 37 19 106t7 117h60q0 -170 -42 -278l104 -127h-82z" />
    <glyph glyph-name="quotesingle" unicode="'" horiz-adv-x="198" 
d="M73 515v207h52v-207h-52z" />
    <glyph glyph-name="parenleft" unicode="(" horiz-adv-x="222" 
d="M117 743h45q-67 -264 -67 -434q0 -207 67 -441h-49q-82 257 -82 426q0 200 86 449z" />
    <glyph glyph-name="parenright" unicode=")" horiz-adv-x="222" 
d="M60 743h45q86 -249 86 -449q0 -169 -82 -426h-49q67 234 67 441q0 170 -67 434z" />
    <glyph glyph-name="asterisk" unicode="*" 
d="M222 610l60 126l45 -28l-77 -112l136 11v-53l-136 14l79 -114l-48 -29l-59 127l-59 -127l-48 29l79 114l-136 -14v53l136 -11l-77 112l45 28z" />
    <glyph glyph-name="plus" unicode="+" 
d="M196 227h-176v52h176v226h52v-226h176v-52h-176v-227h-52v227z" />
    <glyph glyph-name="comma" unicode="," horiz-adv-x="222" 
d="M54 -105l40 181h73l-60 -181h-53z" />
    <glyph glyph-name="hyphen" unicode="-" horiz-adv-x="278" 
d="M240 238h-202v57h202v-57z" />
    <glyph glyph-name="period" unicode="." horiz-adv-x="222" 
d="M74 0v76h74v-76h-74z" />
    <glyph glyph-name="slash" unicode="/" horiz-adv-x="333" 
d="M50 -110h-53l284 832h54z" />
    <glyph glyph-name="zero" unicode="0" 
d="M108 485v-273q0 -45 8 -77.5t19 -50t28 -27t29.5 -12t29.5 -2.5t29.5 2.5t29.5 12t28 27t19 50t8 77.5v273q0 45 -8 77.5t-19 50t-28 27t-29.5 12t-29.5 2.5t-29.5 -2.5t-29.5 -12t-28 -27t-19 -50t-8 -77.5zM222 708q29 0 53 -6t41.5 -14.5t31 -24.5t22 -29.5
t14.5 -37.5t9 -40t5 -44t2 -43.5v-44.5v-151v-44.5t-2 -43.5t-5 -44t-9 -40t-14.5 -37.5t-22 -29.5t-31 -24.5t-41.5 -14.5t-53 -6t-53 6t-41.5 14.5t-31 24.5t-22 29.5t-14.5 37.5t-9 40t-5 44t-2 43.5v44.5v151v44.5t2 43.5t5 44t9 40t14.5 37.5t22 29.5t31 24.5
t41.5 14.5t53 6z" />
    <glyph glyph-name="one" unicode="1" 
d="M89 519v69q86 60 126 109h56v-697h-60v617q-61 -58 -122 -98z" />
    <glyph glyph-name="two" unicode="2" 
d="M394 54v-54h-355v56q43 66 108.5 161.5t97.5 144t58 101.5t26 86t-9.5 55t-27.5 32.5t-35.5 14t-41.5 3.5q-55 0 -84.5 -35.5t-29.5 -91.5h-60q0 95 51.5 138t122.5 43q34 0 62.5 -6.5t56 -21t43.5 -45t16 -72.5q0 -17 -1.5 -32t-8 -33.5t-12 -33t-20.5 -41t-27 -46
t-38 -59t-46.5 -70t-59.5 -89t-71 -105.5h285z" />
    <glyph glyph-name="three" unicode="3" 
d="M171 334v54q152 -13 152 142q0 124 -110 124q-57 0 -82 -34.5t-23 -92.5h-64q-5 79 38 130t123 51q91 0 136.5 -40t45.5 -130q0 -150 -109 -176v-2q67 -7 91.5 -52.5t24.5 -117.5q0 -97 -44.5 -149t-129.5 -52q-93 0 -141 45t-45 137h64q-2 -59 27 -93.5t86 -34.5
q119 0 119 133q0 93 -33.5 129t-125.5 29z" />
    <glyph glyph-name="four" unicode="4" 
d="M82 228h196v409h-2zM338 697v-469h82v-54h-82v-174h-60v174h-250v58l215 465h95z" />
    <glyph glyph-name="five" unicode="5" 
d="M243 446q34 0 61.5 -8.5t44.5 -20t29 -32.5t18 -37t9 -42.5t3.5 -41t0.5 -39.5v-3.5v-3.5q0 -38 -4 -68.5t-16 -61.5t-31 -52t-52 -34t-76 -13q-181 0 -177 178h64q-3 -124 112 -124q30 0 52 10.5t34 26.5t19 41t9 46.5t2 50.5q0 40 -3 65t-14 53t-36 42t-65 14
q-37 0 -69.5 -19.5t-39.5 -53.5h-58v378h321v-54h-261v-249q31 29 57 40.5t66 11.5z" />
    <glyph glyph-name="six" unicode="6" 
d="M336 224q0 84 -24 122.5t-84 38.5q-123 0 -123 -167q0 -175 118 -175q31 0 53 11.5t33.5 27.5t17.5 43t7.5 47.5t1.5 51.5zM393 542h-64q-6 112 -102 112q-29 0 -50.5 -9t-34.5 -28t-21 -38t-11 -50t-4 -51.5t-1 -54.5v-61l2 1q39 76 137 76q156 0 156 -197
q0 -47 -3 -79.5t-13 -67.5t-27.5 -56.5t-49.5 -35.5t-76 -14q-62 0 -100.5 16.5t-56.5 52t-23.5 72.5t-5.5 97v228q0 135 38 194t148 59q159 0 162 -166z" />
    <glyph glyph-name="seven" unicode="7" 
d="M32 643v54h353v-64l-215 -633h-70l224 643h-292z" />
    <glyph glyph-name="eight" unicode="8" 
d="M222 388q111 0 111 137q0 67 -24 101t-87 34t-87 -34t-24 -101q0 -137 111 -137zM294 367v-2q65 -14 87.5 -58t22.5 -118q0 -200 -182 -200t-182 200q0 74 22.5 118t87.5 58l-2 2q-31 7 -51.5 22.5t-31 39t-14.5 48t-4 57.5q0 26 1.5 43.5t11 44.5t27 44t52 29.5
t83.5 12.5t83.5 -12.5t52 -29.5t27 -44t11 -44.5t1.5 -43.5q0 -33 -4 -57.5t-14.5 -48t-32 -39.5t-52.5 -22zM222 37q118 0 118 144q0 34 -3.5 57.5t-14 49t-36 39t-64.5 13.5t-64.5 -13.5t-36 -39t-14 -49t-3.5 -57.5q0 -144 118 -144z" />
    <glyph glyph-name="nine" unicode="9" 
d="M216 329q120 0 120 157q0 34 -1 52t-7 44t-17.5 39t-34.5 23t-56 10q-67 0 -90 -43.5t-23 -116.5q0 -26 2 -47t8.5 -44t18 -38.5t32 -25.5t48.5 -10zM210 275q-91 0 -129 52.5t-38 166.5q0 102 38.5 158t136.5 56q37 0 65.5 -6.5t47.5 -17t32.5 -30.5t20.5 -38.5
t10.5 -51t4.5 -58t1 -68.5v-86q0 -57 -0.5 -89t-3 -74t-7 -64t-13 -49t-21.5 -40t-31.5 -25.5t-43.5 -17t-57 -4.5q-88 0 -129 39t-43 127h64q-2 -112 100 -112q83 0 102 48.5t22 205.5q0 8 0.5 13t0.5 12.5v13.5h-2q-43 -61 -128 -61z" />
    <glyph glyph-name="colon" unicode=":" horiz-adv-x="222" 
d="M74 0v76h74v-76h-74zM74 429v76h74v-76h-74z" />
    <glyph glyph-name="semicolon" unicode=";" horiz-adv-x="222" 
d="M40 -105l40 181h73l-60 -181h-53zM74 429v76h74v-76h-74z" />
    <glyph glyph-name="less" unicode="&#x3c;" 
d="M19 231v44l407 234v-56l-355 -195v-5l355 -201v-56z" />
    <glyph glyph-name="equal" unicode="=" 
d="M424 368v-52h-404v52h404zM424 190v-52h-404v52h404z" />
    <glyph glyph-name="greater" unicode="&#x3e;" 
d="M426 275v-44l-407 -235v56l355 201v5l-355 195v56z" />
    <glyph glyph-name="question" unicode="?" horiz-adv-x="389" 
d="M209 170h-60v87q0 45 11 77t26 52t30.5 41t26.5 56.5t11 86.5q0 30 -2 46t-9 33.5t-23.5 25t-43.5 7.5q-46 0 -61 -31t-13 -82h-64q-3 77 29.5 122t107.5 45q83 0 113 -39t30 -128q0 -52 -11 -92.5t-27 -64.5t-32.5 -45t-27.5 -46.5t-11 -56.5v-94zM143 0v76h74v-76h-74z
" />
    <glyph glyph-name="at" unicode="@" horiz-adv-x="800" 
d="M333 194q74 0 113 85q22 50 43 118t21 92q0 28 -22 50.5t-57 22.5q-49 0 -91.5 -43t-64.5 -100t-22 -107q0 -57 21 -87.5t59 -30.5zM539 541l15 49h55l-105 -314q-14 -40 -14 -59q0 -23 53 -23q55 0 97 41.5t59.5 88t17.5 81.5q0 55 -13 99t-33 73t-49.5 50.5t-57 32.5
t-61 18t-56 8.5t-47.5 1.5q-133 0 -225 -95t-92 -232t92 -232t225 -95q95 0 174.5 37t129.5 105h53q-49 -90 -144 -140t-213 -50q-151 0 -258 110t-107 265t107 265t258 110q76 0 139.5 -17t115.5 -53t81 -98.5t29 -147.5q0 -118 -73.5 -196t-159.5 -78q-38 0 -59.5 10.5
t-29.5 39.5q-55 -50 -124 -50q-60 0 -93 44t-33 110q0 72 28 142t84.5 119t126.5 49q76 0 107 -69z" />
    <glyph glyph-name="A" unicode="A" horiz-adv-x="556" 
d="M241 722h76l225 -722h-67l-58 190h-283l-57 -190h-64zM153 244h247l-123 408h-2z" />
    <glyph glyph-name="B" unicode="B" horiz-adv-x="500" 
d="M132 401h123q121 0 121 145q0 43 -10 69.5t-30.5 37t-35.5 13t-41 2.5h-127v-267zM272 0h-204v722h201q87 0 129 -40t42 -133q0 -73 -21 -114t-84 -58v-2q67 -14 93.5 -57t26.5 -117q0 -98 -46.5 -149.5t-136.5 -51.5zM132 347v-293h102q82 0 119.5 32t37.5 110
q0 151 -129 151h-130z" />
    <glyph glyph-name="C" unicode="C" horiz-adv-x="500" 
d="M275 -14q-40 0 -71.5 7.5t-54 24.5t-38.5 34.5t-26 48.5t-16 54.5t-8.5 65t-3 67.5t-0.5 73t0.5 73t3 67.5t8.5 65t16 54.5t26 48.5t38.5 34.5t54 24.5t71.5 7.5q50 0 85.5 -16.5t53 -37.5t27 -54.5t11 -53t1.5 -47.5h-64q0 155 -114 155q-25 0 -45.5 -5t-35.5 -12.5
t-26.5 -23.5t-19.5 -29.5t-13 -38.5t-8 -43t-4 -51.5t-1.5 -55.5t-0.5 -62t0.5 -62t1.5 -55.5t4 -51.5t8 -43t13 -38.5t19.5 -29.5t26.5 -23.5t35.5 -12.5t45.5 -5q59 0 86.5 45.5t28.5 121.5h68q0 -22 -2.5 -44t-13 -56t-29 -59t-54.5 -43.5t-84 -18.5z" />
    <glyph glyph-name="D" unicode="D" horiz-adv-x="556" 
d="M139 668v-614h78q51 0 83 4.5t57.5 20.5t38.5 37t21 64.5t10 91.5t2 129q0 83 -7 130t-29.5 80.5t-62 45t-107.5 11.5h-84zM75 0v722h191q60 0 101 -15t66 -41t38.5 -74.5t17.5 -100.5t4 -133q0 -98 -9 -158.5t-35.5 -109t-77 -69.5t-131.5 -21h-165z" />
    <glyph glyph-name="E" unicode="E" 
d="M75 722h327v-54h-263v-270h251v-54h-251v-290h270v-54h-334v722z" />
    <glyph glyph-name="F" unicode="F" horiz-adv-x="389" 
d="M68 0v722h305v-54h-241v-270h224v-54h-224v-344h-64z" />
    <glyph glyph-name="G" unicode="G" horiz-adv-x="556" 
d="M413 61v262h-146v54h210v-361q-96 -30 -199 -30q-40 0 -72.5 9t-54.5 25.5t-39 38.5t-26 48t-15.5 55t-8 58.5t-2.5 58.5t0 55v15v12q0 133 7 178q26 178 175 195q17 2 36 2q105 0 156.5 -48t49.5 -151h-64q0 73 -34 109t-108 36q-25 0 -45.5 -5.5t-36 -13t-27 -24
t-19 -29.5t-13 -38.5t-8 -42.5t-4 -50.5t-1.5 -52.5v-58v-3.5v-3.5q0 -158 14 -213q23 -92 106 -106q16 -2 34 -2q80 0 135 21z" />
    <glyph glyph-name="H" unicode="H" horiz-adv-x="556" 
d="M136 0h-64v722h64v-324h284v324h64v-722h-64v344h-284v-344z" />
    <glyph glyph-name="I" unicode="I" horiz-adv-x="222" 
d="M79 722h64v-722h-64v722z" />
    <glyph glyph-name="J" unicode="J" 
d="M22 204h64q0 -36 3 -60.5t13 -50.5t33.5 -39.5t59.5 -13.5q49 0 80 29.5t31 95.5v557h64v-566q0 -48 -17 -82.5t-38 -51t-50.5 -25.5t-43 -10t-27.5 -1q-46 0 -78.5 13.5t-50.5 33t-28 50.5t-12.5 57.5t-2.5 63.5z" />
    <glyph glyph-name="K" unicode="K" horiz-adv-x="500" 
d="M142 0h-64v722h64v-331h2l256 331h77l-270 -337l278 -385h-80l-261 370h-2v-370z" />
    <glyph glyph-name="L" unicode="L" horiz-adv-x="389" 
d="M370 0h-303v722h64v-668h239v-54z" />
    <glyph glyph-name="M" unicode="M" horiz-adv-x="778" 
d="M135 0h-64v722h109l213 -652h2l210 652h102v-722h-64v660h-2l-212 -660h-74l-218 660h-2v-660z" />
    <glyph glyph-name="N" unicode="N" horiz-adv-x="611" 
d="M141 0h-64v722h98l293 -634l2 2v632h64v-722h-97l-294 641l-2 -2v-639z" />
    <glyph glyph-name="O" unicode="O" horiz-adv-x="556" 
d="M124 361q0 -40 0.5 -62t1.5 -55.5t4 -51.5t8 -43t13 -38.5t19.5 -29.5t26.5 -23.5t35.5 -12.5t45.5 -5t45.5 5t35.5 12.5t26.5 23.5t19.5 29.5t13 38.5t8 43t4 51.5t1.5 55.5t0.5 62t-0.5 62t-1.5 55.5t-4 51.5t-8 43t-13 38.5t-19.5 29.5t-26.5 23.5t-35.5 12.5t-45.5 5
t-45.5 -5t-35.5 -12.5t-26.5 -23.5t-19.5 -29.5t-13 -38.5t-8 -43t-4 -51.5t-1.5 -55.5t-0.5 -62zM60 361q0 47 0.5 73t3 67.5t8.5 65t16 54.5t26 48.5t38.5 34.5t54 24.5t71.5 7.5t71.5 -7.5t54 -24.5t38.5 -34.5t26 -48.5t16 -54.5t8.5 -65t3 -67.5t0.5 -73t-0.5 -73
t-3 -67.5t-8.5 -65t-16 -54.5t-26 -48.5t-38.5 -34.5t-54 -24.5t-71.5 -7.5t-71.5 7.5t-54 24.5t-38.5 34.5t-26 48.5t-16 54.5t-8.5 65t-3 67.5t-0.5 73z" />
    <glyph glyph-name="P" unicode="P" 
d="M64 0v722h198q23 0 40 -2t41 -12t39.5 -27.5t27 -51.5t11.5 -82q0 -110 -39.5 -160.5t-131.5 -50.5h-122v-336h-64zM128 668v-278h119q54 0 82 32.5t28 112.5q0 83 -28.5 108t-82.5 25h-118z" />
    <glyph glyph-name="Q" unicode="Q" horiz-adv-x="556" 
d="M278 50q33 0 58.5 10t42 30.5t27.5 46t16.5 63t7.5 74.5t2 87q0 158 -14 213q-23 92 -106 106q-16 2 -34 2q-25 0 -45.5 -5.5t-36 -13t-27 -24t-19 -29.5t-13 -38.5t-8 -42.5t-4 -50.5t-1.5 -52.5v-58v-3.5v-3.5q0 -70 2.5 -113.5t11.5 -85t25.5 -63.5t44.5 -35.5
t70 -13.5zM60 361q0 133 7 178q26 178 175 195q17 2 36 2q40 0 72.5 -9t54.5 -25.5t39 -38.5t26 -48t15.5 -55t8 -58.5t2.5 -58.5t0 -55v-15v-12q0 -145 -16.5 -209t-65.5 -96l2 -2h126v-54h-138q-15 0 -43 -2q-30 -2 -52 -2q-52 0 -91.5 9.5t-66 22t-44.5 41.5t-27 51
t-13.5 69.5t-5.5 78t-1 93.5z" />
    <glyph glyph-name="R" unicode="R" horiz-adv-x="500" 
d="M253 350h-121v-350h-64v722h199q102 0 138 -37.5t36 -135.5q0 -76 -22 -116.5t-90 -55.5v-2q29 -6 43.5 -10t29 -18t19.5 -28t9.5 -50.5t5 -74.5t0.5 -110q0 -16 3 -46.5t4 -37.5h-61q-6 21 -10 180v22q1 23 0 36.5t-8 37.5t-18.5 38t-35.5 25t-57 11zM132 668v-264h104
q76 0 108.5 29.5t32.5 116.5q0 70 -26.5 94t-87.5 24h-131z" />
    <glyph glyph-name="S" unicode="S" horiz-adv-x="500" 
d="M443 539h-65q-2 73 -27.5 108t-94.5 35q-62 0 -94.5 -25.5t-32.5 -86.5q0 -31 5.5 -52.5t19.5 -37t26.5 -24.5t39.5 -25.5t45 -29.5t51.5 -33.5t51.5 -33.5t38.5 -34.5t29.5 -51.5t9 -70q0 -192 -192 -192q-207 0 -198 217h66q0 -37 3.5 -60t15.5 -50t41 -40t75 -13
q125 0 125 128q0 18 -3.5 34t-7.5 27.5t-16 25t-18 20.5t-25.5 21t-27.5 19t-35 21t-36 22q-51 31 -81.5 56.5t-44.5 50.5t-17.5 43.5t-3.5 50.5q-1 90 51 133.5t145 43.5q103 0 142.5 -53.5t39.5 -143.5z" />
    <glyph glyph-name="T" unicode="T" 
d="M190 0v668h-176v54h416v-54h-176v-668h-64z" />
    <glyph glyph-name="U" unicode="U" horiz-adv-x="556" 
d="M131 722v-454q0 -32 1 -50t4.5 -50t13 -50.5t25 -38.5t42 -29.5t61.5 -9.5t61.5 9.5t42 29.5t25 38.5t13 50.5t4.5 50t1 50v454h64v-501q0 -235 -211 -235t-211 235v501h64z" />
    <glyph glyph-name="V" unicode="V" horiz-adv-x="500" 
d="M250 76l178 646h62l-200 -722h-80l-201 722h68l171 -646h2z" />
    <glyph glyph-name="W" unicode="W" horiz-adv-x="833" 
d="M226 84l147 638h86l145 -633h2l154 633h63l-179 -722h-84l-145 642h-2l-149 -642h-80l-174 722h68l146 -638h2z" />
    <glyph glyph-name="X" unicode="X" horiz-adv-x="500" 
d="M24 722h70l153 -301l158 301h68l-186 -349l203 -373h-75l-171 330l-167 -330h-68l194 373z" />
    <glyph glyph-name="Y" unicode="Y" horiz-adv-x="500" 
d="M217 0v300l-204 422h72l165 -359l173 359h64l-206 -422v-300h-64z" />
    <glyph glyph-name="Z" unicode="Z" 
d="M44 722h373v-71l-327 -597h330v-54h-396v71l330 597h-310v54z" />
    <glyph glyph-name="bracketleft" unicode="[" horiz-adv-x="222" 
d="M50 -132v875h139v-48h-79v-779h79v-48h-139z" />
    <glyph glyph-name="backslash" unicode="\" horiz-adv-x="222" 
d="M204 0l-239 722h53l239 -722h-53z" />
    <glyph glyph-name="bracketright" unicode="]" horiz-adv-x="222" 
d="M172 743v-875h-139v48h79v779h-79v48h139z" />
    <glyph glyph-name="asciicircum" unicode="^" 
d="M201 708h42l135 -410h-47l-109 334h-2l-107 -334h-47z" />
    <glyph glyph-name="underscore" unicode="_" horiz-adv-x="500" 
d="M500 -125h-500v50h500v-50z" />
    <glyph glyph-name="grave" unicode="`" horiz-adv-x="278" 
d="M203 560h-50l-143 137h80z" />
    <glyph glyph-name="a" unicode="a" 
d="M318 166v92q-5 0 -33 -0.5t-37.5 -1.5t-34.5 -4t-36 -7t-28.5 -13t-25.5 -20.5t-14.5 -29.5t-6.5 -40q0 -45 23.5 -74.5t67.5 -29.5q51 0 88 39t37 89zM322 0v62h-2q-48 -72 -143 -72q-66 0 -102.5 40.5t-36.5 108.5q0 32 8.5 57.5t20.5 42t33 29t39.5 18.5t45.5 10
t45.5 5.5t46.5 2.5t41 2v42q0 59 -22.5 89t-79.5 30q-44 0 -71.5 -22t-27.5 -65h-64q4 69 50.5 102t117.5 33q157 0 157 -134v-254q0 -68 6 -127h-62z" />
    <glyph glyph-name="b" unicode="b" 
d="M121 260q0 -28 0.5 -45t3.5 -47.5t10 -49.5t18.5 -39.5t31 -30.5t45.5 -10q32 0 54.5 12t34 28t17.5 48t7 56.5t1 68.5q0 36 -1 57.5t-4 50.5t-10.5 45t-19.5 32.5t-32 23.5t-47 7q-109 0 -109 -207zM119 0h-62q6 34 6 50v672h60v-274l2 -2q45 69 128 69q32 0 57 -8.5
t40.5 -23.5t27 -34.5t16 -42t8 -46t2.5 -46t0 -42.5v-19q0 -41 -2 -71t-11 -69t-24.5 -63.5t-46 -42t-72.5 -17.5q-89 0 -127 71h-2v-61z" />
    <glyph glyph-name="c" unicode="c" horiz-adv-x="389" 
d="M346 360h-60q5 107 -89 107q-28 0 -49.5 -15.5t-31.5 -42.5q-14 -40 -14 -159q0 -31 0.5 -48t3 -46.5t8.5 -46.5t15.5 -35.5t26.5 -27t39 -8.5q54 0 71.5 28t20.5 83h60q1 -39 -8.5 -68.5t-24.5 -46.5t-35 -27t-37 -13.5t-33 -3.5q-31 0 -56 5.5t-42.5 18t-30.5 25
t-20.5 35t-12.5 38.5t-6.5 45t-2 45.5t-0.5 47.5q0 123 15 167q35 98 152 98q68 0 106.5 -39t34.5 -116z" />
    <glyph glyph-name="d" unicode="d" 
d="M212 38q47 0 79 41.5t32 127.5v90q0 22 -2.5 41t-11.5 53.5t-34.5 55t-64.5 20.5q-26 0 -45.5 -7t-31 -24t-18 -32t-9.5 -45.5t-3.5 -49.5t-0.5 -58q0 -68 7.5 -112t23.5 -65.5t34 -28.5t45 -7zM329 0l-3 64l-2 -1q-47 -73 -128 -73q-42 0 -72 17t-45.5 40.5t-24 62.5
t-10.5 69t-2 74v34.5t1.5 37t4 40t8 37.5t13 36t19.5 30t27 25.5t36 15.5t46 6q74 0 122 -60l2 -1v268h60v-622q0 -66 6 -100h-58z" />
    <glyph glyph-name="e" unicode="e" 
d="M396 240h-288v-39q0 -30 5 -55.5t16.5 -51.5t35 -41t57.5 -15q55 0 83.5 31.5t27.5 84.5h63q-9 -164 -174 -164q-174 0 -174 188v124q0 213 174 213q32 0 57.5 -5t43.5 -17.5t30.5 -24.5t20.5 -35t12.5 -39.5t6.5 -48t2.5 -50t0.5 -55.5zM108 288h228q0 92 -23 135.5
t-91 43.5t-91 -43.5t-23 -135.5z" />
    <glyph glyph-name="f" unicode="f" horiz-adv-x="278" 
d="M100 0v457h-81v48h81v85q0 136 129 136q4 0 34 -4v-50h-45q-20 0 -33 -7.5t-18 -22.5t-6 -25t-1 -26v-86h102v-48h-102v-457h-60z" />
    <glyph glyph-name="g" unicode="g" 
d="M208 467q-37 0 -60 -19.5t-32 -56t-11.5 -62.5t-2.5 -65q0 -35 0.5 -53t3.5 -47.5t10 -45t18.5 -32.5t31 -24.5t45.5 -7.5q34 0 58.5 18t32.5 39q12 31 15.5 67t3.5 143q0 74 -33 110t-80 36zM325 442v64h59q-3 -72 -3 -99v-425q0 -90 -38 -133.5t-140 -43.5
q-45 0 -76.5 14.5t-46 37t-20.5 44.5t-4 44h60q-3 -42 24.5 -67t70.5 -25q21 0 36.5 2t27.5 9.5t19.5 12.5t13 21.5t8 25t4 34t1.5 38v47.5v24h-2q-37 -61 -122 -61q-42 0 -71.5 14.5t-45.5 35.5t-25 55.5t-11 63t-2 68.5q0 85 2 107.5t13 64.5q3 11 10.5 25t23.5 32.5
t44 30.5t64 12q39 0 73.5 -19t50.5 -52z" />
    <glyph glyph-name="h" unicode="h" 
d="M121 0h-60v722h60v-279h2q50 72 122 72q44 0 73.5 -14.5t42.5 -41t17.5 -50t4.5 -53.5v-356h-60v353q0 50 -22 82t-71 32q-46 0 -77.5 -36t-31.5 -114v-317z" />
    <glyph glyph-name="i" unicode="i" horiz-adv-x="222" 
d="M141 0h-60v505h60v-505zM148 646h-74v76h74v-76z" />
    <glyph glyph-name="j" unicode="j" horiz-adv-x="222" 
d="M85 505h60v-598q0 -24 -5.5 -44t-29 -39t-63.5 -19q-34 0 -44 4v50q53 -4 67.5 12.5t14.5 68.5v565zM152 646h-74v76h74v-76z" />
    <glyph glyph-name="k" unicode="k" horiz-adv-x="389" 
d="M63 0v722h60v-440h2l174 223h70l-179 -225l191 -280h-76l-180 275h-2v-275h-60z" />
    <glyph glyph-name="l" unicode="l" horiz-adv-x="222" 
d="M141 0h-60v722h60v-722z" />
    <glyph glyph-name="m" unicode="m" horiz-adv-x="667" 
d="M120 325v-325h-60v506h54v-63h2q42 72 120 72q40 0 71 -21t44 -58q39 79 124 79q61 0 95 -38t36 -101v-376h-60v361q-1 44 -19.5 75t-58.5 31q-53 0 -79 -42.5t-26 -99.5v-325h-60v361q-1 44 -19.5 75t-58.5 31q-53 0 -79 -42.5t-26 -99.5z" />
    <glyph glyph-name="n" unicode="n" 
d="M121 317v-317h-60v505h60v-62h2q50 72 122 72q44 0 73.5 -14.5t42.5 -41t17.5 -50t4.5 -53.5v-356h-60v353q0 50 -22 82t-71 32q-46 0 -77.5 -36t-31.5 -114z" />
    <glyph glyph-name="o" unicode="o" 
d="M222 -10q-87 0 -130.5 54t-43.5 154v109q0 100 43.5 154t130.5 54t130.5 -54t43.5 -154v-109q0 -100 -43.5 -154t-130.5 -54zM222 467q-69 0 -91.5 -52t-22.5 -162q0 -111 22.5 -163t91.5 -52t91.5 52t22.5 163q0 110 -22.5 162t-91.5 52z" />
    <glyph glyph-name="p" unicode="p" 
d="M123 298v-90q0 -82 31 -126t76 -44q69 0 91.5 52t22.5 163q0 110 -22.5 162t-91.5 52q-37 0 -72 -42.5t-35 -126.5zM121 505v-61l2 1q23 35 56 52.5t66 17.5q45 0 77 -16t47.5 -36t24 -53t9.5 -51.5t1 -47.5v-113q0 -103 -40.5 -155.5t-133.5 -52.5q-62 0 -105 66l-2 1
v-248h-60v696h58z" />
    <glyph glyph-name="q" unicode="q" 
d="M209 38q32 0 54.5 12t34 28t17.5 48t7 56.5t1 68.5q0 36 -1 57.5t-4 50.5t-10.5 45t-19.5 32.5t-32 23.5t-47 7q-109 0 -109 -207q0 -28 0.5 -45t3.5 -47.5t10 -49.5t18.5 -39.5t31 -30.5t45.5 -10zM325 505h62q-6 -34 -6 -50v-646h-60v248l-2 2q-45 -69 -128 -69
q-32 0 -57 8.5t-40.5 23.5t-27 34.5t-16 42t-8 46t-2.5 46t0 42.5v19q0 41 2 71t11 69t24.5 63.5t46 42t72.5 17.5q90 0 127 -75h2v65z" />
    <glyph glyph-name="r" unicode="r" horiz-adv-x="278" 
d="M125 505v-68h2q19 36 56 57t83 21v-61q-64 5 -102.5 -30t-38.5 -99v-325h-60v505h60z" />
    <glyph glyph-name="s" unicode="s" horiz-adv-x="389" 
d="M344 133q0 -70 -39 -106.5t-110 -36.5q-80 0 -116 39t-35 121h61q0 -57 19.5 -86t73.5 -29q86 0 86 89q0 36 -23.5 61.5t-57 41.5t-66.5 34t-56.5 50t-23.5 78q0 126 152 126q70 0 101 -40.5t31 -105.5h-59q-2 51 -21 74.5t-67 23.5q-33 0 -55 -20t-22 -53
q0 -34 23.5 -58.5t56.5 -40t66.5 -33t57 -50t23.5 -79.5z" />
    <glyph glyph-name="t" unicode="t" horiz-adv-x="278" 
d="M97 457h-81v48h81v104l60 26v-130h102v-48h-102v-324q0 -51 10 -67t45 -16q28 0 47 3v-52q-27 -3 -57 -3q-58 0 -81.5 24.5t-23.5 73.5v361z" />
    <glyph glyph-name="u" unicode="u" 
d="M319 505h60v-505h-52v56h-2q-54 -66 -127 -66q-133 0 -133 158v357h60v-347q0 -120 84 -120q54 0 82 38t28 73v356z" />
    <glyph glyph-name="v" unicode="v" horiz-adv-x="389" 
d="M75 505l121 -429h2l123 429h58l-150 -505h-69l-150 505h65z" />
    <glyph glyph-name="w" unicode="w" horiz-adv-x="667" 
d="M149 0l-139 505h64l113 -442h2l107 442h74l112 -442h2l113 442h60l-139 -505h-75l-111 432h-2l-106 -432h-75z" />
    <glyph glyph-name="x" unicode="x" horiz-adv-x="389" 
d="M11 0l148 269l-125 236h72l92 -190l100 190h66l-132 -233l146 -272h-73l-111 219l-116 -219h-67z" />
    <glyph glyph-name="y" unicode="y" horiz-adv-x="389" 
d="M111 -191l59 190l-160 506h65l123 -414h2l119 414h60l-209 -696h-59z" />
    <glyph glyph-name="z" unicode="z" horiz-adv-x="333" 
d="M28 0v49l210 408h-198v48h259v-50l-205 -407h210v-48h-276z" />
    <glyph glyph-name="braceleft" unicode="{" horiz-adv-x="351" 
d="M143 435v194q0 36 11 60t33.5 35t45.5 15t57 4v-48q-48 0 -65.5 -20.5t-17.5 -61.5v-161q0 -59 -16 -90.5t-71 -48.5v-2q52 -9 69.5 -38t17.5 -87v-188q0 -41 17.5 -61.5t65.5 -20.5v-48q-34 0 -57 4t-45.5 15t-33.5 35t-11 60v207q0 37 -19.5 68t-62.5 31v48
q43 0 62.5 31t19.5 68z" />
    <glyph glyph-name="bar" unicode="|" horiz-adv-x="222" 
d="M85 -250v1000h52v-1000h-52z" />
    <glyph glyph-name="braceright" unicode="}" horiz-adv-x="351" 
d="M208 629v-194q0 -37 19.5 -68t62.5 -31v-48q-43 0 -62.5 -31t-19.5 -68v-207q0 -36 -11 -60t-33.5 -35t-45.5 -15t-57 -4v48q48 0 65.5 20.5t17.5 61.5v188q0 58 17.5 87t69.5 38v2q-55 17 -71 48.5t-16 90.5v161q0 41 -17.5 61.5t-65.5 20.5v48q34 0 57 -4t45.5 -15
t33.5 -35t11 -60z" />
    <glyph glyph-name="asciitilde" unicode="~" 
d="M54 185l-34 35q25 40 51 63t64 23q32 0 94 -26q64 -26 82 -26q47 0 80 67l33 -40q-50 -81 -113 -81q-22 0 -108 32q-53 20 -68 20t-27 -5t-23.5 -18.5t-15.5 -19.5t-15 -24z" />
    <glyph glyph-name="uni00A0" unicode="&#xa0;" horiz-adv-x="222" 
 />
    <glyph glyph-name="exclamdown" unicode="&#xa1;" horiz-adv-x="333" 
d="M129 439v76h74v-76h-74zM141 345h52l9 -536h-70z" />
    <glyph glyph-name="cent" unicode="&#xa2;" 
d="M154 67l95 406q-23 7 -36 7q-24 0 -42 -10t-28.5 -31.5t-17 -39.5t-8.5 -51.5t-2.5 -49t-0.5 -47.5v-6v-5.5v-5.5v-15.5v-18.5t0.5 -18t1 -19.5t2 -19t3.5 -19t5 -16.5t7 -16.5t9.5 -13t11.5 -11.5zM172 -7l-35 -149h-40l40 159q-54 37 -70.5 84.5t-16.5 166.5
q0 30 0.5 47t3.5 50.5t9 54.5t19 48t30.5 42.5t45.5 26.5t63 11q23 0 42 -4l27 118h37l-29 -128q99 -44 92 -167h-60q0 79 -46 108l-95 -412q23 -6 44 -6q49 0 75 39.5t26 110.5h60q0 -98 -43 -151t-119 -53q-20 0 -60 4z" />
    <glyph glyph-name="sterling" unicode="&#xa3;" 
d="M398 0h-379v54h74v291h-81v54h81v128q0 97 44.5 139t111.5 42q91 0 127 -42.5t33 -136.5h-64q9 125 -93 125q-99 0 -99 -122v-133h150v-54h-150v-291h245v-54z" />
    <glyph glyph-name="currency" unicode="&#xa4;" 
d="M88 107l-40 -39l-47 48l39 38q-43 62 -43 133q0 76 43 136l-39 39l47 47l40 -38q59 44 134 44t134 -44l40 38l47 -47l-39 -39q43 -60 43 -136q0 -71 -43 -133l39 -38l-47 -48l-40 39q-63 -45 -134 -45t-134 45zM222 116q70 -1 116 53.5t45 117.5q-1 79 -42.5 126
t-118.5 48q-77 -1 -118.5 -48t-42.5 -126q-1 -63 45 -117.5t116 -53.5z" />
    <glyph glyph-name="yen" unicode="&#xa5;" 
d="M191 211v65h-147v54h128l-175 367h76l149 -334l156 334h69l-176 -367h129v-54h-149v-65h149v-54h-149v-157h-60v157h-147v54h147z" />
    <glyph glyph-name="brokenbar" unicode="&#xa6;" horiz-adv-x="222" 
d="M85 -175v350h52v-350h-52zM85 675h52v-350h-52v350z" />
    <glyph glyph-name="section" unicode="&#xa7;" 
d="M77 5v57q74 -28 128 -28q45 0 77.5 21.5t32.5 64.5q0 28 -25.5 52.5t-62.5 43.5l-74 38t-62.5 46t-25.5 59q0 21 6.5 37.5t21.5 29.5t25 20t32.5 18.5t28.5 14.5q-47 28 -74 59.5t-27 77.5q0 63 46 91.5t113 28.5q56 0 110 -24v-56q-74 32 -115 32q-35 0 -62.5 -17
t-27.5 -51q0 -30 24 -54t58.5 -41.5t69 -35.5t58.5 -46.5t24 -64.5q0 -20 -8.5 -37.5t-30.5 -36t-29.5 -24.5t-35.5 -25q107 -49 107 -136q0 -61 -44.5 -97t-119.5 -36q-58 0 -138 19zM228 278q5 4 24.5 18.5t29.5 23.5t20 24t10 30q0 9 -3 17t-9.5 15.5t-11.5 12.5
t-16.5 11.5t-16 9t-17.5 8.5t-15 7q-2 -1 -18.5 -10.5t-26 -15.5t-23 -16.5t-20 -21.5t-6.5 -22t5.5 -22t11.5 -18t19.5 -16t20 -13t23 -12t19.5 -10z" />
    <glyph glyph-name="dieresis" unicode="&#xa8;" horiz-adv-x="278" 
d="M28 571v101h64v-101h-64zM186 571v101h64v-101h-64z" />
    <glyph glyph-name="copyright" unicode="&#xa9;" horiz-adv-x="800" 
d="M400 -14q-151 0 -258 110t-107 265t107 265t258 110t258 -110t107 -265t-107 -265t-258 -110zM400 34q133 0 225 95t92 232t-92 232t-225 95t-225 -95t-92 -232t92 -232t225 -95zM398 546q-55 0 -71.5 -42t-16.5 -135t16.5 -135t71.5 -42q39 0 56.5 21t18.5 64h60
q0 -17 -4 -35t-15.5 -42.5t-38 -40t-65.5 -15.5q-34 0 -60 9t-43 20.5t-28.5 33.5t-17 37.5t-8.5 44t-3 41v39.5v39.5t3 41t8.5 44t17 37.5t28.5 33.5t43 20.5t60 9q117 0 116 -122v-1.5v-1.5h-60q2 39 -13 58t-55 19z" />
    <glyph glyph-name="ordfeminine" unicode="&#xaa;" horiz-adv-x="266" 
d="M200 527v55h-19t-21 -0.5t-20 -1.5t-21 -3t-17.5 -5t-17 -8.5l-12 -12t-9 -16.5t-2.5 -22q0 -29 15 -46t44 -17q33 0 56.5 23.5t23.5 53.5zM244 428h-39v39h-2q-32 -47 -93 -47q-44 0 -67.5 24t-23.5 67q0 19 5.5 34.5t13.5 25.5t21.5 17.5t25 11.5t30 6.5t29.5 3t30 1.5
t26 1v24q0 36 -14 53t-51 17q-64 0 -64 -50h-42q2 41 32.5 60.5t76.5 19.5q102 0 102 -80v-152q0 -41 4 -76z" />
    <glyph glyph-name="guillemotleft" unicode="&#xab;" horiz-adv-x="389" 
d="M284 90l-87 194l90 194h52l-78 -194l76 -194h-53zM137 90l-87 194l90 194h52l-78 -194l76 -194h-53z" />
    <glyph glyph-name="logicalnot" unicode="&#xac;" 
d="M20 368h404v-275h-52v223h-352v52z" />
    <glyph glyph-name="uni00AD" unicode="&#xad;" horiz-adv-x="278" 
d="M240 238h-202v57h202v-57z" />
    <glyph glyph-name="registered" unicode="&#xae;" horiz-adv-x="800" 
d="M400 -14q-151 0 -258 110t-107 265t107 265t258 110t258 -110t107 -265t-107 -265t-258 -110zM400 34q133 0 225 95t92 232t-92 232t-225 95t-225 -95t-92 -232t92 -232t225 -95zM400 343h-79v-198h-52v441h140q73 0 102 -26.5t29 -85.5q0 -86 -83 -103v-2
q27 -5 38.5 -10t21 -24t11 -48.5t1.5 -91.5q0 -16 6 -50h-51q-3 9 -7 108v12.5t-0.5 19t-5 20t-12 19.5t-23 13t-36.5 6zM321 538v-147h68q49 0 70 17t21 67q0 37 -17.5 50t-56.5 13h-85z" />
    <glyph glyph-name="macron" unicode="&#xaf;" horiz-adv-x="278" 
d="M9 648h260v-48h-260v48z" />
    <glyph glyph-name="degree" unicode="&#xb0;" horiz-adv-x="400" 
d="M350 558q0 -62 -44 -106t-106 -44t-106 44t-44 106q-1 62 43.5 106t106.5 44t106 -44t44 -106zM310 558q0 45 -32.5 77.5t-78.5 32.5q-45 0 -77.5 -32.5t-31.5 -77.5q0 -46 32 -78t78 -32q45 0 77.5 32t32.5 78z" />
    <glyph glyph-name="plusminus" unicode="&#xb1;" 
d="M196 279h-176v52h176v174h52v-174h176v-52h-176v-174h-52v174zM424 52v-52h-404v52h404z" />
    <glyph glyph-name="twosuperior" unicode="&#xb2;" horiz-adv-x="266" 
d="M241 323v-40h-231v41q22 31 55 76t51 70t37.5 55t28 51t8.5 37q0 32 -17 43.5t-48 11.5q-66 0 -66 -69h-47q0 58 33 83.5t80 25.5q115 0 115 -87q0 -44 -28.5 -91t-147.5 -207h177z" />
    <glyph glyph-name="threesuperior" unicode="&#xb3;" horiz-adv-x="266" 
d="M100 484v40q50 -4 70 13t20 64q0 30 -16.5 48.5t-46.5 18.5q-63 0 -60 -69h-50q-3 48 25 78.5t80 30.5q59 0 88.5 -24t29.5 -78q0 -91 -71 -102v-2q76 -11 76 -105q0 -58 -29 -89t-84 -31q-61 0 -92 27t-29 82h50q-1 -69 65 -69q36 0 52.5 20.5t16.5 51.5
q0 56 -20.5 77.5t-74.5 17.5z" />
    <glyph glyph-name="acute" unicode="&#xb4;" horiz-adv-x="278" 
d="M75 560l113 137h80l-143 -137h-50z" />
    <glyph glyph-name="mu" unicode="&#xb5;" 
d="M319 505h60v-505h-52v56h-2q-54 -66 -127 -66q-49 0 -73 18v-199h-60v696h60v-347q0 -120 84 -120q54 0 82 38t28 73v356z" />
    <glyph glyph-name="paragraph" unicode="&#xb6;" horiz-adv-x="564" 
d="M233 -96v453q-70 -1 -116 52t-46 128q0 182 176 185h175v-818h-52v764h-85v-764h-52z" />
    <glyph glyph-name="periodcentered" unicode="&#xb7;" horiz-adv-x="222" 
d="M74 215v76h74v-76h-74z" />
    <glyph glyph-name="cedilla" unicode="&#xb8;" horiz-adv-x="278" 
d="M30 -188l15 30q42 -14 64 -14q25 0 44.5 11.5t19.5 34.5q0 19 -14.5 29t-34.5 10q-23 0 -38 -10l-20 15l60 82h38l-41 -55l2 -2q15 5 30 5q31 0 54.5 -20t23.5 -53q0 -82 -114 -82q-41 0 -89 19z" />
    <glyph glyph-name="onesuperior" unicode="&#xb9;" horiz-adv-x="266" 
d="M49 592v44q56 35 82 65h42v-418h-45v368q-34 -31 -79 -59z" />
    <glyph glyph-name="ordmasculine" unicode="&#xba;" horiz-adv-x="266" 
d="M132 420q-18 0 -33.5 3t-26.5 7.5t-19.5 13.5t-14 15.5t-9.5 19t-6 19.5t-3 21.5t-1 20.5v20.5v17.5q0 1 -0.5 19t0 23.5t2 22.5t4.5 24t8 20.5t14 20t20.5 14.5t28 11t36.5 3q18 0 33.5 -3t26.5 -7.5t20 -13.5t14.5 -15.5t9.5 -19t6 -20t3 -21.5t1 -20v-20.5v-17.5
q0 -1 0.5 -19.5t0 -23.5t-2 -22.5t-4.5 -24t-8.5 -20.5t-14 -20t-20 -14t-28.5 -11t-37 -3zM132 450q26 0 42 9t22.5 30t8 38t1.5 51q0 27 -0.5 41t-4.5 33.5t-11.5 29t-22 17t-35.5 7.5t-35 -7.5t-21.5 -17t-11.5 -29t-4.5 -33.5t-0.5 -41q0 -34 1.5 -51t8 -38t22 -30
t41.5 -9z" />
    <glyph glyph-name="guillemotright" unicode="&#xbb;" horiz-adv-x="389" 
d="M105 90h-53l76 194l-78 194h52l90 -194zM252 90h-53l76 194l-78 194h52l90 -194z" />
    <glyph glyph-name="onequarter" unicode="&#xbc;" horiz-adv-x="666" 
d="M558 418v-274h53v-40h-53v-104h-45v104h-162v49l139 265h68zM392 144h121v238h-2zM116 -29h-56l437 751h55zM49 592v44q56 35 82 65h42v-418h-45v368q-34 -31 -79 -59z" />
    <glyph glyph-name="onehalf" unicode="&#xbd;" horiz-adv-x="666" 
d="M623 0h-231v41q22 31 55 76t51 70t37.5 55t28 51t8.5 37q0 32 -17 43.5t-48 11.5q-66 0 -66 -69h-47q0 58 33 83.5t80 25.5q115 0 115 -87q0 -44 -28.5 -91t-147.5 -207h177v-40zM107 -29h-56l437 751h55zM49 592v44q56 35 82 65h42v-418h-45v368q-34 -31 -79 -59z" />
    <glyph glyph-name="threequarters" unicode="&#xbe;" horiz-adv-x="666" 
d="M558 418v-274h53v-40h-53v-104h-45v104h-162v49l139 265h68zM392 144h121v238h-2zM143 -29h-56l437 751h55zM100 484v40q50 -4 70 13t20 64q0 30 -16.5 48.5t-46.5 18.5q-63 0 -60 -69h-50q-3 48 25 78.5t80 30.5q59 0 88.5 -24t29.5 -78q0 -91 -71 -102v-2
q76 -11 76 -105q0 -58 -29 -89t-84 -31q-61 0 -92 27t-29 82h50q-1 -69 65 -69q36 0 52.5 20.5t16.5 51.5q0 56 -20.5 77.5t-74.5 17.5z" />
    <glyph glyph-name="questiondown" unicode="&#xbf;" horiz-adv-x="389" 
d="M180 345h60v-87q0 -45 -11 -77t-26 -52t-30.5 -41t-26.5 -56.5t-11 -86.5q0 -30 2 -46t9 -33.5t23.5 -25t43.5 -7.5q46 0 61 31t13 82h64q3 -77 -29.5 -122t-107.5 -45q-83 0 -113 39t-30 128q0 52 11 92.5t27.5 64.5t32.5 45t27 46.5t11 56.5v94zM173 439v76h74v-76h-74
z" />
    <glyph glyph-name="Agrave" unicode="&#xc0;" horiz-adv-x="556" 
d="M241 722h76l225 -722h-67l-58 190h-283l-57 -190h-64zM153 244h247l-123 408h-2zM342 777h-50l-143 137h80z" />
    <glyph glyph-name="Aacute" unicode="&#xc1;" horiz-adv-x="556" 
d="M241 722h76l225 -722h-67l-58 190h-283l-57 -190h-64zM153 244h247l-123 408h-2zM214 777l113 137h80l-143 -137h-50z" />
    <glyph glyph-name="Acircumflex" unicode="&#xc2;" horiz-adv-x="556" 
d="M241 722h76l225 -722h-67l-58 190h-283l-57 -190h-64zM153 244h247l-123 408h-2zM278 877l-82 -102h-64l113 139h67l113 -139h-64z" />
    <glyph glyph-name="Atilde" unicode="&#xc3;" horiz-adv-x="556" 
d="M241 722h76l225 -722h-67l-58 190h-283l-57 -190h-64zM153 244h247l-123 408h-2zM160 812h-38q5 41 26 69q26 33 62 33q8 0 18.5 -3t17.5 -6t20 -9.5t18 -8.5l18 -9t18.5 -9t15.5 -6t16 -3q19 0 30 16t14 38h38q-2 -38 -23 -68q-22 -34 -59 -34q-9 0 -19.5 3t-18 6
t-20.5 9.5t-18 8.5t-17.5 8.5t-19 9.5t-16 6t-17.5 3q-18 0 -30.5 -17t-15.5 -37z" />
    <glyph glyph-name="Adieresis" unicode="&#xc4;" horiz-adv-x="556" 
d="M241 722h76l225 -722h-67l-58 190h-283l-57 -190h-64zM153 244h247l-123 408h-2zM167 788v101h64v-101h-64zM325 788v101h64v-101h-64z" />
    <glyph glyph-name="Aring" unicode="&#xc5;" horiz-adv-x="556" 
d="M241 722h76l225 -722h-67l-58 190h-283l-57 -190h-64zM153 244h247l-123 408h-2zM278 953q38 0 65 -27.5t27 -65.5t-27 -66t-65 -28t-65.5 28t-27.5 66t27.5 65.5t65.5 27.5zM278 918q-24 0 -41 -17t-17 -41q0 -23 17.5 -41t40.5 -18q22 0 39.5 18t17.5 41t-17 40.5
t-40 17.5z" />
    <glyph glyph-name="AE" unicode="&#xc6;" horiz-adv-x="778" 
d="M79 0h-66l331 722h387v-54h-286l26 -270h248v-54h-243l25 -290h241v-54h-301l-16 190h-259zM380 674l-189 -430h229l-38 430h-2z" />
    <glyph glyph-name="Ccedilla" unicode="&#xc7;" horiz-adv-x="500" 
d="M453 527h-64q0 155 -114 155q-25 0 -45.5 -5t-35.5 -12.5t-26.5 -23.5t-19.5 -29.5t-13 -38.5t-8 -43t-4 -51.5t-1.5 -55.5t-0.5 -62t0.5 -62t1.5 -55.5t4 -51.5t8 -43t13 -38.5t19.5 -29.5t26.5 -23.5t35.5 -12.5t45.5 -5q59 0 86.5 45.5t28.5 121.5h68q0 -22 -2.5 -44
t-13 -56t-29 -59t-54.5 -43.5t-84 -18.5q-7 0 -10 1l-31 -42l2 -2q15 5 30 5q31 0 54.5 -20t23.5 -53q0 -82 -114 -82q-41 0 -89 19l15 30q42 -14 64 -14q25 0 44.5 11.5t19.5 34.5q0 19 -14.5 29t-34.5 10q-23 0 -38 -10l-20 15l53 71q-36 5 -63.5 19.5t-45.5 32
t-30.5 48.5t-19 56t-10 68t-4 70.5t-0.5 77.5q0 47 0.5 73t3 67.5t8.5 65t16 54.5t26 48.5t38.5 34.5t54 24.5t71.5 7.5q50 0 85.5 -16.5t53 -37.5t27 -54.5t11 -53t1.5 -47.5z" />
    <glyph glyph-name="Egrave" unicode="&#xc8;" 
d="M75 722h327v-54h-263v-270h251v-54h-251v-290h270v-54h-334v722zM286 777h-50l-143 137h80z" />
    <glyph glyph-name="Eacute" unicode="&#xc9;" 
d="M75 722h327v-54h-263v-270h251v-54h-251v-290h270v-54h-334v722zM158 777l113 137h80l-143 -137h-50z" />
    <glyph glyph-name="Ecircumflex" unicode="&#xca;" 
d="M75 722h327v-54h-263v-270h251v-54h-251v-290h270v-54h-334v722zM222 877l-82 -102h-64l113 139h67l113 -139h-64z" />
    <glyph glyph-name="Edieresis" unicode="&#xcb;" 
d="M75 722h327v-54h-263v-270h251v-54h-251v-290h270v-54h-334v722zM111 788v101h64v-101h-64zM269 788v101h64v-101h-64z" />
    <glyph glyph-name="Igrave" unicode="&#xcc;" horiz-adv-x="222" 
d="M79 722h64v-722h-64v722zM175 777h-50l-143 137h80z" />
    <glyph glyph-name="Iacute" unicode="&#xcd;" horiz-adv-x="222" 
d="M79 722h64v-722h-64v722zM47 777l113 137h80l-143 -137h-50z" />
    <glyph glyph-name="Icircumflex" unicode="&#xce;" horiz-adv-x="222" 
d="M79 722h64v-722h-64v722zM111 877l-82 -102h-64l113 139h67l113 -139h-64z" />
    <glyph glyph-name="Idieresis" unicode="&#xcf;" horiz-adv-x="222" 
d="M79 722h64v-722h-64v722zM0 788v101h64v-101h-64zM158 788v101h64v-101h-64z" />
    <glyph glyph-name="Eth" unicode="&#xd0;" horiz-adv-x="556" 
d="M75 0v370h-61v54h61v298h191q60 0 101 -15t66 -41t38.5 -74.5t17.5 -100.5t4 -133q0 -98 -9 -158.5t-35.5 -109t-77 -69.5t-131.5 -21h-165zM139 668v-244h152v-54h-152v-316h78q51 0 83 4.5t57.5 20.5t38.5 37t21 64.5t10 91.5t2 129q0 83 -7 130t-29.5 80.5t-62 45
t-107.5 11.5h-84z" />
    <glyph glyph-name="Ntilde" unicode="&#xd1;" horiz-adv-x="611" 
d="M141 0h-64v722h98l293 -634l2 2v632h64v-722h-97l-294 641l-2 -2v-639zM188 812h-38q5 41 26 69q26 33 62 33q8 0 18.5 -3t17.5 -6t20 -9.5t18 -8.5l18 -9t18.5 -9t15.5 -6t16 -3q19 0 30 16t14 38h38q-2 -38 -23 -68q-22 -34 -59 -34q-9 0 -19.5 3t-18 6t-20.5 9.5
t-18 8.5t-17.5 8.5t-19 9.5t-16 6t-17.5 3q-18 0 -30.5 -17t-15.5 -37z" />
    <glyph glyph-name="Ograve" unicode="&#xd2;" horiz-adv-x="556" 
d="M124 361q0 -40 0.5 -62t1.5 -55.5t4 -51.5t8 -43t13 -38.5t19.5 -29.5t26.5 -23.5t35.5 -12.5t45.5 -5t45.5 5t35.5 12.5t26.5 23.5t19.5 29.5t13 38.5t8 43t4 51.5t1.5 55.5t0.5 62t-0.5 62t-1.5 55.5t-4 51.5t-8 43t-13 38.5t-19.5 29.5t-26.5 23.5t-35.5 12.5t-45.5 5
t-45.5 -5t-35.5 -12.5t-26.5 -23.5t-19.5 -29.5t-13 -38.5t-8 -43t-4 -51.5t-1.5 -55.5t-0.5 -62zM60 361q0 47 0.5 73t3 67.5t8.5 65t16 54.5t26 48.5t38.5 34.5t54 24.5t71.5 7.5t71.5 -7.5t54 -24.5t38.5 -34.5t26 -48.5t16 -54.5t8.5 -65t3 -67.5t0.5 -73t-0.5 -73
t-3 -67.5t-8.5 -65t-16 -54.5t-26 -48.5t-38.5 -34.5t-54 -24.5t-71.5 -7.5t-71.5 7.5t-54 24.5t-38.5 34.5t-26 48.5t-16 54.5t-8.5 65t-3 67.5t-0.5 73zM342 777h-50l-143 137h80z" />
    <glyph glyph-name="Oacute" unicode="&#xd3;" horiz-adv-x="556" 
d="M124 361q0 -40 0.5 -62t1.5 -55.5t4 -51.5t8 -43t13 -38.5t19.5 -29.5t26.5 -23.5t35.5 -12.5t45.5 -5t45.5 5t35.5 12.5t26.5 23.5t19.5 29.5t13 38.5t8 43t4 51.5t1.5 55.5t0.5 62t-0.5 62t-1.5 55.5t-4 51.5t-8 43t-13 38.5t-19.5 29.5t-26.5 23.5t-35.5 12.5t-45.5 5
t-45.5 -5t-35.5 -12.5t-26.5 -23.5t-19.5 -29.5t-13 -38.5t-8 -43t-4 -51.5t-1.5 -55.5t-0.5 -62zM60 361q0 47 0.5 73t3 67.5t8.5 65t16 54.5t26 48.5t38.5 34.5t54 24.5t71.5 7.5t71.5 -7.5t54 -24.5t38.5 -34.5t26 -48.5t16 -54.5t8.5 -65t3 -67.5t0.5 -73t-0.5 -73
t-3 -67.5t-8.5 -65t-16 -54.5t-26 -48.5t-38.5 -34.5t-54 -24.5t-71.5 -7.5t-71.5 7.5t-54 24.5t-38.5 34.5t-26 48.5t-16 54.5t-8.5 65t-3 67.5t-0.5 73zM214 777l113 137h80l-143 -137h-50z" />
    <glyph glyph-name="Ocircumflex" unicode="&#xd4;" horiz-adv-x="556" 
d="M124 361q0 -40 0.5 -62t1.5 -55.5t4 -51.5t8 -43t13 -38.5t19.5 -29.5t26.5 -23.5t35.5 -12.5t45.5 -5t45.5 5t35.5 12.5t26.5 23.5t19.5 29.5t13 38.5t8 43t4 51.5t1.5 55.5t0.5 62t-0.5 62t-1.5 55.5t-4 51.5t-8 43t-13 38.5t-19.5 29.5t-26.5 23.5t-35.5 12.5t-45.5 5
t-45.5 -5t-35.5 -12.5t-26.5 -23.5t-19.5 -29.5t-13 -38.5t-8 -43t-4 -51.5t-1.5 -55.5t-0.5 -62zM60 361q0 47 0.5 73t3 67.5t8.5 65t16 54.5t26 48.5t38.5 34.5t54 24.5t71.5 7.5t71.5 -7.5t54 -24.5t38.5 -34.5t26 -48.5t16 -54.5t8.5 -65t3 -67.5t0.5 -73t-0.5 -73
t-3 -67.5t-8.5 -65t-16 -54.5t-26 -48.5t-38.5 -34.5t-54 -24.5t-71.5 -7.5t-71.5 7.5t-54 24.5t-38.5 34.5t-26 48.5t-16 54.5t-8.5 65t-3 67.5t-0.5 73zM278 877l-82 -102h-64l113 139h67l113 -139h-64z" />
    <glyph glyph-name="Otilde" unicode="&#xd5;" horiz-adv-x="556" 
d="M124 361q0 -40 0.5 -62t1.5 -55.5t4 -51.5t8 -43t13 -38.5t19.5 -29.5t26.5 -23.5t35.5 -12.5t45.5 -5t45.5 5t35.5 12.5t26.5 23.5t19.5 29.5t13 38.5t8 43t4 51.5t1.5 55.5t0.5 62t-0.5 62t-1.5 55.5t-4 51.5t-8 43t-13 38.5t-19.5 29.5t-26.5 23.5t-35.5 12.5t-45.5 5
t-45.5 -5t-35.5 -12.5t-26.5 -23.5t-19.5 -29.5t-13 -38.5t-8 -43t-4 -51.5t-1.5 -55.5t-0.5 -62zM60 361q0 47 0.5 73t3 67.5t8.5 65t16 54.5t26 48.5t38.5 34.5t54 24.5t71.5 7.5t71.5 -7.5t54 -24.5t38.5 -34.5t26 -48.5t16 -54.5t8.5 -65t3 -67.5t0.5 -73t-0.5 -73
t-3 -67.5t-8.5 -65t-16 -54.5t-26 -48.5t-38.5 -34.5t-54 -24.5t-71.5 -7.5t-71.5 7.5t-54 24.5t-38.5 34.5t-26 48.5t-16 54.5t-8.5 65t-3 67.5t-0.5 73zM160 812h-38q5 41 26 69q26 33 62 33q8 0 18.5 -3t17.5 -6t20 -9.5t18 -8.5l18 -9t18.5 -9t15.5 -6t16 -3q19 0 30 16
t14 38h38q-2 -38 -23 -68q-22 -34 -59 -34q-9 0 -19.5 3t-18 6t-20.5 9.5t-18 8.5t-17.5 8.5t-19 9.5t-16 6t-17.5 3q-18 0 -30.5 -17t-15.5 -37z" />
    <glyph glyph-name="Odieresis" unicode="&#xd6;" horiz-adv-x="556" 
d="M124 361q0 -40 0.5 -62t1.5 -55.5t4 -51.5t8 -43t13 -38.5t19.5 -29.5t26.5 -23.5t35.5 -12.5t45.5 -5t45.5 5t35.5 12.5t26.5 23.5t19.5 29.5t13 38.5t8 43t4 51.5t1.5 55.5t0.5 62t-0.5 62t-1.5 55.5t-4 51.5t-8 43t-13 38.5t-19.5 29.5t-26.5 23.5t-35.5 12.5t-45.5 5
t-45.5 -5t-35.5 -12.5t-26.5 -23.5t-19.5 -29.5t-13 -38.5t-8 -43t-4 -51.5t-1.5 -55.5t-0.5 -62zM60 361q0 47 0.5 73t3 67.5t8.5 65t16 54.5t26 48.5t38.5 34.5t54 24.5t71.5 7.5t71.5 -7.5t54 -24.5t38.5 -34.5t26 -48.5t16 -54.5t8.5 -65t3 -67.5t0.5 -73t-0.5 -73
t-3 -67.5t-8.5 -65t-16 -54.5t-26 -48.5t-38.5 -34.5t-54 -24.5t-71.5 -7.5t-71.5 7.5t-54 24.5t-38.5 34.5t-26 48.5t-16 54.5t-8.5 65t-3 67.5t-0.5 73zM167 788v101h64v-101h-64zM325 788v101h64v-101h-64z" />
    <glyph glyph-name="multiply" unicode="&#xd7;" 
d="M222 216l-165 -165l-37 37l165 165l-165 165l37 37l165 -165l165 165l37 -37l-165 -165l165 -165l-37 -37z" />
    <glyph glyph-name="Oslash" unicode="&#xd8;" horiz-adv-x="556" 
d="M137 152l263 467q-33 63 -122 63q-25 0 -45.5 -5.5t-36 -13t-27 -24t-19 -29.5t-13 -38.5t-8 -42.5t-4 -50.5t-1.5 -52.5v-58v-3.5v-3.5q0 -158 13 -209zM418 570l-262 -467q33 -63 122 -63q25 0 45.5 5.5t36 13t27 24t19 29.5t13 38.5t8 42.5t4 50.5t1.5 52.5v58v3.5
v3.5q0 154 -14 209zM123 45l-42 -76l-37 18l54 95q-9 17 -16 35.5t-11 41.5t-6.5 39t-3.5 44.5t-1 39.5v42.5v36.5q0 133 7 178q26 178 175 195q17 2 36 2q99 0 155 -59l46 82l33 -21l-54 -97q9 -17 16 -35.5t11 -41.5t6.5 -39.5t3.5 -45t1 -39.5v-42.5v-36.5
q0 -133 -7 -178q-26 -178 -175 -195q-17 -2 -36 -2q-101 0 -155 59z" />
    <glyph glyph-name="Ugrave" unicode="&#xd9;" horiz-adv-x="556" 
d="M131 722v-454q0 -32 1 -50t4.5 -50t13 -50.5t25 -38.5t42 -29.5t61.5 -9.5t61.5 9.5t42 29.5t25 38.5t13 50.5t4.5 50t1 50v454h64v-501q0 -235 -211 -235t-211 235v501h64zM342 777h-50l-143 137h80z" />
    <glyph glyph-name="Uacute" unicode="&#xda;" horiz-adv-x="556" 
d="M131 722v-454q0 -32 1 -50t4.5 -50t13 -50.5t25 -38.5t42 -29.5t61.5 -9.5t61.5 9.5t42 29.5t25 38.5t13 50.5t4.5 50t1 50v454h64v-501q0 -235 -211 -235t-211 235v501h64zM214 777l113 137h80l-143 -137h-50z" />
    <glyph glyph-name="Ucircumflex" unicode="&#xdb;" horiz-adv-x="556" 
d="M131 722v-454q0 -32 1 -50t4.5 -50t13 -50.5t25 -38.5t42 -29.5t61.5 -9.5t61.5 9.5t42 29.5t25 38.5t13 50.5t4.5 50t1 50v454h64v-501q0 -235 -211 -235t-211 235v501h64zM278 877l-82 -102h-64l113 139h67l113 -139h-64z" />
    <glyph glyph-name="Udieresis" unicode="&#xdc;" horiz-adv-x="556" 
d="M131 722v-454q0 -32 1 -50t4.5 -50t13 -50.5t25 -38.5t42 -29.5t61.5 -9.5t61.5 9.5t42 29.5t25 38.5t13 50.5t4.5 50t1 50v454h64v-501q0 -235 -211 -235t-211 235v501h64zM167 788v101h64v-101h-64zM325 788v101h64v-101h-64z" />
    <glyph glyph-name="Yacute" unicode="&#xdd;" horiz-adv-x="500" 
d="M217 0v300l-204 422h72l165 -359l173 359h64l-206 -422v-300h-64zM186 777l113 137h80l-143 -137h-50z" />
    <glyph glyph-name="Thorn" unicode="&#xde;" 
d="M64 0v722h64v-164h134q23 0 40 -2t41 -12t39.5 -27.5t27 -51.5t11.5 -82q0 -110 -39.5 -160.5t-131.5 -50.5h-122v-172h-64zM128 504v-278h119q54 0 82 32.5t28 112.5q0 83 -28.5 108t-82.5 25h-118z" />
    <glyph glyph-name="germandbls" unicode="&#xdf;" horiz-adv-x="500" 
d="M457 134q0 -71 -40.5 -107.5t-112.5 -36.5q-65 0 -98.5 35t-31.5 100h60q1 -44 19.5 -65.5t62.5 -21.5q39 0 60 24t21 63q0 28 -17.5 55.5t-42.5 49t-50.5 43t-43 47t-17.5 51.5q0 43 27 84.5t54 80.5t27 74q0 36 -30 57t-67 21q-110 0 -110 -140v-548h-60v568
q0 22 4 42.5t15.5 44t30 41t51.5 29t76 11.5q60 0 105 -35t45 -95q0 -40 -27 -81.5t-54 -77.5t-27 -62q0 -21 17.5 -43.5t43 -44t50.5 -45t42.5 -54.5t17.5 -64z" />
    <glyph glyph-name="agrave" unicode="&#xe0;" 
d="M318 166v92q-5 0 -33 -0.5t-37.5 -1.5t-34.5 -4t-36 -7t-28.5 -13t-25.5 -20.5t-14.5 -29.5t-6.5 -40q0 -45 23.5 -74.5t67.5 -29.5q51 0 88 39t37 89zM322 0v62h-2q-48 -72 -143 -72q-66 0 -102.5 40.5t-36.5 108.5q0 32 8.5 57.5t20.5 42t33 29t39.5 18.5t45.5 10
t45.5 5.5t46.5 2.5t41 2v42q0 59 -22.5 89t-79.5 30q-44 0 -71.5 -22t-27.5 -65h-64q4 69 50.5 102t117.5 33q157 0 157 -134v-254q0 -68 6 -127h-62zM286 560h-50l-143 137h80z" />
    <glyph glyph-name="aacute" unicode="&#xe1;" 
d="M318 166v92q-5 0 -33 -0.5t-37.5 -1.5t-34.5 -4t-36 -7t-28.5 -13t-25.5 -20.5t-14.5 -29.5t-6.5 -40q0 -45 23.5 -74.5t67.5 -29.5q51 0 88 39t37 89zM322 0v62h-2q-48 -72 -143 -72q-66 0 -102.5 40.5t-36.5 108.5q0 32 8.5 57.5t20.5 42t33 29t39.5 18.5t45.5 10
t45.5 5.5t46.5 2.5t41 2v42q0 59 -22.5 89t-79.5 30q-44 0 -71.5 -22t-27.5 -65h-64q4 69 50.5 102t117.5 33q157 0 157 -134v-254q0 -68 6 -127h-62zM158 560l113 137h80l-143 -137h-50z" />
    <glyph glyph-name="acircumflex" unicode="&#xe2;" 
d="M318 166v92q-5 0 -33 -0.5t-37.5 -1.5t-34.5 -4t-36 -7t-28.5 -13t-25.5 -20.5t-14.5 -29.5t-6.5 -40q0 -45 23.5 -74.5t67.5 -29.5q51 0 88 39t37 89zM322 0v62h-2q-48 -72 -143 -72q-66 0 -102.5 40.5t-36.5 108.5q0 32 8.5 57.5t20.5 42t33 29t39.5 18.5t45.5 10
t45.5 5.5t46.5 2.5t41 2v42q0 59 -22.5 89t-79.5 30q-44 0 -71.5 -22t-27.5 -65h-64q4 69 50.5 102t117.5 33q157 0 157 -134v-254q0 -68 6 -127h-62zM222 660l-82 -102h-64l113 139h67l113 -139h-64z" />
    <glyph glyph-name="atilde" unicode="&#xe3;" 
d="M318 166v92q-5 0 -33 -0.5t-37.5 -1.5t-34.5 -4t-36 -7t-28.5 -13t-25.5 -20.5t-14.5 -29.5t-6.5 -40q0 -45 23.5 -74.5t67.5 -29.5q51 0 88 39t37 89zM322 0v62h-2q-48 -72 -143 -72q-66 0 -102.5 40.5t-36.5 108.5q0 32 8.5 57.5t20.5 42t33 29t39.5 18.5t45.5 10
t45.5 5.5t46.5 2.5t41 2v42q0 59 -22.5 89t-79.5 30q-44 0 -71.5 -22t-27.5 -65h-64q4 69 50.5 102t117.5 33q157 0 157 -134v-254q0 -68 6 -127h-62zM104 595h-38q5 41 26 69q26 33 62 33q8 0 18.5 -3t17.5 -6t20 -9.5t18 -8.5l18 -9t18.5 -9t15.5 -6t16 -3q19 0 30 16
t14 38h38q-2 -38 -23 -68q-22 -34 -59 -34q-9 0 -19.5 3t-18 6t-20.5 9.5t-18 8.5t-17.5 8.5t-19 9.5t-16 6t-17.5 3q-18 0 -30.5 -17t-15.5 -37z" />
    <glyph glyph-name="adieresis" unicode="&#xe4;" 
d="M318 166v92q-5 0 -33 -0.5t-37.5 -1.5t-34.5 -4t-36 -7t-28.5 -13t-25.5 -20.5t-14.5 -29.5t-6.5 -40q0 -45 23.5 -74.5t67.5 -29.5q51 0 88 39t37 89zM322 0v62h-2q-48 -72 -143 -72q-66 0 -102.5 40.5t-36.5 108.5q0 32 8.5 57.5t20.5 42t33 29t39.5 18.5t45.5 10
t45.5 5.5t46.5 2.5t41 2v42q0 59 -22.5 89t-79.5 30q-44 0 -71.5 -22t-27.5 -65h-64q4 69 50.5 102t117.5 33q157 0 157 -134v-254q0 -68 6 -127h-62zM111 571v101h64v-101h-64zM269 571v101h64v-101h-64z" />
    <glyph glyph-name="aring" unicode="&#xe5;" 
d="M318 166v92q-5 0 -33 -0.5t-37.5 -1.5t-34.5 -4t-36 -7t-28.5 -13t-25.5 -20.5t-14.5 -29.5t-6.5 -40q0 -45 23.5 -74.5t67.5 -29.5q51 0 88 39t37 89zM322 0v62h-2q-48 -72 -143 -72q-66 0 -102.5 40.5t-36.5 108.5q0 32 8.5 57.5t20.5 42t33 29t39.5 18.5t45.5 10
t45.5 5.5t46.5 2.5t41 2v42q0 59 -22.5 89t-79.5 30q-44 0 -71.5 -22t-27.5 -65h-64q4 69 50.5 102t117.5 33q157 0 157 -134v-254q0 -68 6 -127h-62zM222 736q38 0 65 -27.5t27 -65.5t-27 -66t-65 -28t-65.5 28t-27.5 66t27.5 65.5t65.5 27.5zM222 701q-24 0 -41 -17
t-17 -41q0 -23 17.5 -41t40.5 -18q22 0 39.5 18t17.5 41t-17 40.5t-40 17.5z" />
    <glyph glyph-name="ae" unicode="&#xe6;" horiz-adv-x="722" 
d="M102 136q0 -98 109 -98q38 0 63 21t35 56.5t12.5 67.5t0.5 67q-12 -1 -37 -1.5t-39 -1t-36 -3.5t-35 -7t-28.5 -12t-24 -19.5t-14.5 -29.5t-6 -40zM378 298h228q0 85 -23.5 127t-90.5 42q-53 0 -83.5 -46t-30.5 -123zM666 250h-288v-49q0 -30 5 -55.5t16.5 -51.5t35 -41
t57.5 -15q55 0 83.5 31.5t27.5 84.5h63q-9 -164 -174 -164q-51 0 -90.5 24t-51.5 66q-41 -90 -144 -90q-72 0 -120 36.5t-48 105.5q0 35 9.5 61.5t22 44t37 29.5t43 18t52.5 9t52.5 3.5t54.5 0.5h4.5h4h4.5q0 31 -1 48.5t-6.5 44t-16 40.5t-31.5 25t-51 11q-44 0 -71.5 -22
t-27.5 -65h-64q4 69 50.5 102t117.5 33q46 0 85 -19.5t54 -57.5q19 35 56 56t76 21q36 0 64 -8t46 -19.5t30.5 -32.5t19 -39.5t9.5 -49t4 -51.5t1 -56v-9z" />
    <glyph glyph-name="ccedilla" unicode="&#xe7;" horiz-adv-x="389" 
d="M346 360h-60q5 107 -89 107q-28 0 -49.5 -15.5t-31.5 -42.5q-14 -40 -14 -159q0 -31 0.5 -48t3 -46.5t8.5 -46.5t15.5 -35.5t26.5 -27t39 -8.5q54 0 71.5 28t20.5 83h60q2 -47 -11.5 -80.5t-36.5 -49t-43.5 -22.5t-42.5 -7l-34 -45l2 -2q15 5 30 5q31 0 54.5 -20
t23.5 -53q0 -82 -114 -82q-41 0 -89 19l15 30q42 -14 64 -14q25 0 44.5 11.5t19.5 34.5q0 19 -14.5 29t-34.5 10q-23 0 -38 -10l-20 15l54 74q-29 3 -51 13.5t-36.5 23.5t-24.5 35.5t-15 39.5t-7.5 47.5t-3 47.5t-0.5 51q0 123 15 167q35 98 152 98q68 0 106.5 -39
t34.5 -116z" />
    <glyph glyph-name="egrave" unicode="&#xe8;" 
d="M396 240h-288v-39q0 -30 5 -55.5t16.5 -51.5t35 -41t57.5 -15q55 0 83.5 31.5t27.5 84.5h63q-9 -164 -174 -164q-174 0 -174 188v124q0 213 174 213q32 0 57.5 -5t43.5 -17.5t30.5 -24.5t20.5 -35t12.5 -39.5t6.5 -48t2.5 -50t0.5 -55.5zM108 288h228q0 92 -23 135.5
t-91 43.5t-91 -43.5t-23 -135.5zM286 560h-50l-143 137h80z" />
    <glyph glyph-name="eacute" unicode="&#xe9;" 
d="M396 240h-288v-39q0 -30 5 -55.5t16.5 -51.5t35 -41t57.5 -15q55 0 83.5 31.5t27.5 84.5h63q-9 -164 -174 -164q-174 0 -174 188v124q0 213 174 213q32 0 57.5 -5t43.5 -17.5t30.5 -24.5t20.5 -35t12.5 -39.5t6.5 -48t2.5 -50t0.5 -55.5zM108 288h228q0 92 -23 135.5
t-91 43.5t-91 -43.5t-23 -135.5zM158 560l113 137h80l-143 -137h-50z" />
    <glyph glyph-name="ecircumflex" unicode="&#xea;" 
d="M396 240h-288v-39q0 -30 5 -55.5t16.5 -51.5t35 -41t57.5 -15q55 0 83.5 31.5t27.5 84.5h63q-9 -164 -174 -164q-174 0 -174 188v124q0 213 174 213q32 0 57.5 -5t43.5 -17.5t30.5 -24.5t20.5 -35t12.5 -39.5t6.5 -48t2.5 -50t0.5 -55.5zM108 288h228q0 92 -23 135.5
t-91 43.5t-91 -43.5t-23 -135.5zM222 660l-82 -102h-64l113 139h67l113 -139h-64z" />
    <glyph glyph-name="edieresis" unicode="&#xeb;" 
d="M396 240h-288v-39q0 -30 5 -55.5t16.5 -51.5t35 -41t57.5 -15q55 0 83.5 31.5t27.5 84.5h63q-9 -164 -174 -164q-174 0 -174 188v124q0 213 174 213q32 0 57.5 -5t43.5 -17.5t30.5 -24.5t20.5 -35t12.5 -39.5t6.5 -48t2.5 -50t0.5 -55.5zM108 288h228q0 92 -23 135.5
t-91 43.5t-91 -43.5t-23 -135.5zM111 571v101h64v-101h-64zM269 571v101h64v-101h-64z" />
    <glyph glyph-name="igrave" unicode="&#xec;" horiz-adv-x="222" 
d="M141 0h-60v505h60v-505zM175 560h-50l-143 137h80z" />
    <glyph glyph-name="iacute" unicode="&#xed;" horiz-adv-x="222" 
d="M141 0h-60v505h60v-505zM47 560l113 137h80l-143 -137h-50z" />
    <glyph glyph-name="icircumflex" unicode="&#xee;" horiz-adv-x="222" 
d="M141 0h-60v505h60v-505zM111 660l-82 -102h-64l113 139h67l113 -139h-64z" />
    <glyph glyph-name="idieresis" unicode="&#xef;" horiz-adv-x="222" 
d="M141 0h-60v505h60v-505zM0 571v101h64v-101h-64zM158 571v101h64v-101h-64z" />
    <glyph glyph-name="eth" unicode="&#xf0;" 
d="M112 618l91 50q-39 22 -92 42l43 37q52 -16 101 -50l89 50l31 -30l-84 -47q54 -54 79.5 -130.5t25.5 -240.5v-101q0 -100 -43.5 -154t-130.5 -54t-130.5 54t-43.5 154v109q0 100 43.5 154t130.5 54q79 0 102 -44l2 2q-2 47 -31.5 97.5t-56.5 69.5l-94 -52zM222 467
q-69 0 -91.5 -52t-22.5 -162q0 -111 22.5 -163t91.5 -52t91.5 52t22.5 163q0 110 -22.5 162t-91.5 52z" />
    <glyph glyph-name="ntilde" unicode="&#xf1;" 
d="M121 317v-317h-60v505h60v-62h2q50 72 122 72q44 0 73.5 -14.5t42.5 -41t17.5 -50t4.5 -53.5v-356h-60v353q0 50 -22 82t-71 32q-46 0 -77.5 -36t-31.5 -114zM104 595h-38q5 41 26 69q26 33 62 33q8 0 18.5 -3t17.5 -6t20 -9.5t18 -8.5l18 -9t18.5 -9t15.5 -6t16 -3
q19 0 30 16t14 38h38q-2 -38 -23 -68q-22 -34 -59 -34q-9 0 -19.5 3t-18 6t-20.5 9.5t-18 8.5t-17.5 8.5t-19 9.5t-16 6t-17.5 3q-18 0 -30.5 -17t-15.5 -37z" />
    <glyph glyph-name="ograve" unicode="&#xf2;" 
d="M222 -10q-87 0 -130.5 54t-43.5 154v109q0 100 43.5 154t130.5 54t130.5 -54t43.5 -154v-109q0 -100 -43.5 -154t-130.5 -54zM222 467q-69 0 -91.5 -52t-22.5 -162q0 -111 22.5 -163t91.5 -52t91.5 52t22.5 163q0 110 -22.5 162t-91.5 52zM286 560h-50l-143 137h80z" />
    <glyph glyph-name="oacute" unicode="&#xf3;" 
d="M222 -10q-87 0 -130.5 54t-43.5 154v109q0 100 43.5 154t130.5 54t130.5 -54t43.5 -154v-109q0 -100 -43.5 -154t-130.5 -54zM222 467q-69 0 -91.5 -52t-22.5 -162q0 -111 22.5 -163t91.5 -52t91.5 52t22.5 163q0 110 -22.5 162t-91.5 52zM158 560l113 137h80l-143 -137
h-50z" />
    <glyph glyph-name="ocircumflex" unicode="&#xf4;" 
d="M222 -10q-87 0 -130.5 54t-43.5 154v109q0 100 43.5 154t130.5 54t130.5 -54t43.5 -154v-109q0 -100 -43.5 -154t-130.5 -54zM222 467q-69 0 -91.5 -52t-22.5 -162q0 -111 22.5 -163t91.5 -52t91.5 52t22.5 163q0 110 -22.5 162t-91.5 52zM222 660l-82 -102h-64l113 139
h67l113 -139h-64z" />
    <glyph glyph-name="otilde" unicode="&#xf5;" 
d="M222 -10q-87 0 -130.5 54t-43.5 154v109q0 100 43.5 154t130.5 54t130.5 -54t43.5 -154v-109q0 -100 -43.5 -154t-130.5 -54zM222 467q-69 0 -91.5 -52t-22.5 -162q0 -111 22.5 -163t91.5 -52t91.5 52t22.5 163q0 110 -22.5 162t-91.5 52zM104 595h-38q5 41 26 69
q26 33 62 33q8 0 18.5 -3t17.5 -6t20 -9.5t18 -8.5l18 -9t18.5 -9t15.5 -6t16 -3q19 0 30 16t14 38h38q-2 -38 -23 -68q-22 -34 -59 -34q-9 0 -19.5 3t-18 6t-20.5 9.5t-18 8.5t-17.5 8.5t-19 9.5t-16 6t-17.5 3q-18 0 -30.5 -17t-15.5 -37z" />
    <glyph glyph-name="odieresis" unicode="&#xf6;" 
d="M222 -10q-87 0 -130.5 54t-43.5 154v109q0 100 43.5 154t130.5 54t130.5 -54t43.5 -154v-109q0 -100 -43.5 -154t-130.5 -54zM222 467q-69 0 -91.5 -52t-22.5 -162q0 -111 22.5 -163t91.5 -52t91.5 52t22.5 163q0 110 -22.5 162t-91.5 52zM111 571v101h64v-101h-64z
M269 571v101h64v-101h-64z" />
    <glyph glyph-name="divide" unicode="&#xf7;" 
d="M20 279h404v-52h-404v52zM185 429v76h74v-76h-74zM185 1v76h74v-76h-74z" />
    <glyph glyph-name="oslash" unicode="&#xf8;" 
d="M326 384l-191 -306q26 -40 87 -40q13 0 25 2t21 5.5t16 7t13 9.5l10 10t7 10.5t4.5 9t3.5 8.5l2 5q12 30 12 148q0 91 -10 131zM118 119l192 307q-19 41 -88 41q-70 0 -92 -47t-22 -167q0 -94 10 -134zM103 26l-44 -70l-30 20l49 79q-30 45 -30 143v120q0 19 0.5 31.5
t4 35t9.5 38t19 34.5t31 30.5t46 19.5t64 8q79 0 120 -38l43 70l30 -19l-48 -77q20 -35 24.5 -61t4.5 -72v-120q0 -103 -40.5 -155.5t-133.5 -52.5q-78 0 -119 36z" />
    <glyph glyph-name="ugrave" unicode="&#xf9;" 
d="M319 505h60v-505h-52v56h-2q-54 -66 -127 -66q-133 0 -133 158v357h60v-347q0 -120 84 -120q54 0 82 38t28 73v356zM286 560h-50l-143 137h80z" />
    <glyph glyph-name="uacute" unicode="&#xfa;" 
d="M319 505h60v-505h-52v56h-2q-54 -66 -127 -66q-133 0 -133 158v357h60v-347q0 -120 84 -120q54 0 82 38t28 73v356zM158 560l113 137h80l-143 -137h-50z" />
    <glyph glyph-name="ucircumflex" unicode="&#xfb;" 
d="M319 505h60v-505h-52v56h-2q-54 -66 -127 -66q-133 0 -133 158v357h60v-347q0 -120 84 -120q54 0 82 38t28 73v356zM222 660l-82 -102h-64l113 139h67l113 -139h-64z" />
    <glyph glyph-name="udieresis" unicode="&#xfc;" 
d="M319 505h60v-505h-52v56h-2q-54 -66 -127 -66q-133 0 -133 158v357h60v-347q0 -120 84 -120q54 0 82 38t28 73v356zM111 571v101h64v-101h-64zM269 571v101h64v-101h-64z" />
    <glyph glyph-name="yacute" unicode="&#xfd;" horiz-adv-x="389" 
d="M111 -191l59 190l-160 506h65l123 -414h2l119 414h60l-209 -696h-59zM131 560l113 137h80l-143 -137h-50z" />
    <glyph glyph-name="thorn" unicode="&#xfe;" 
d="M123 298v-90q0 -82 31 -126t76 -44q32 0 54.5 12t34 28t17.5 48t7 56.5t1 68.5q0 36 -1 57.5t-4 50.5t-10.5 45t-19.5 32.5t-32 23.5t-47 7q-37 0 -72 -42.5t-35 -126.5zM63 -191v913h60v-278l2 1q43 70 128 70q32 0 57 -8.5t40.5 -23.5t27 -34.5t16 -42t8 -46t2.5 -46
t0 -42.5v-19q0 -41 -2 -71t-11 -69t-24.5 -63.5t-46 -42t-72.5 -17.5q-82 0 -123 66l-2 1v-248h-60z" />
    <glyph glyph-name="ydieresis" unicode="&#xff;" horiz-adv-x="389" 
d="M111 -191l59 190l-160 506h65l123 -414h2l119 414h60l-209 -696h-59zM84 571v101h64v-101h-64zM242 571v101h64v-101h-64z" />
    <glyph glyph-name="dotlessi" unicode="&#x131;" horiz-adv-x="222" 
d="M141 0h-60v505h60v-505z" />
    <glyph glyph-name="Lslash" unicode="&#x141;" horiz-adv-x="389" 
d="M67 0v374l-77 -44l-20 35l97 56v301h64v-264l99 57l20 -35l-119 -69v-357h239v-54h-303z" />
    <glyph glyph-name="lslash" unicode="&#x142;" horiz-adv-x="222" 
d="M81 0v394l-80 -46l-18 29l98 57v288h60v-253l80 46l18 -29l-98 -57v-429h-60z" />
    <glyph glyph-name="OE" unicode="&#x152;" horiz-adv-x="778" 
d="M407 53v611q-88 8 -107 8q-41 0 -70 -7.5t-48 -27t-30 -41.5t-16.5 -62.5t-7 -77t-1.5 -98.5q0 -51 1 -81t5 -67.5t12 -58t22.5 -43t36.5 -33.5t53 -18t73 -7q12 0 24.5 0.5t28 1.5t24.5 1zM471 668v-270h249v-54h-249v-290h267v-54h-331q-15 0 -43 -2q-30 -2 -52 -2
q-52 0 -91.5 9.5t-66 22t-44.5 41.5t-27 51t-13.5 69.5t-5.5 78t-1 93.5q0 133 7 176q22 149 144 180q36 9 80 9q19 0 65 -2t48 -2h324v-54h-260z" />
    <glyph glyph-name="oe" unicode="&#x153;" horiz-adv-x="722" 
d="M222 -10q-93 0 -133.5 52.5t-40.5 155.5v120q0 19 0.5 31.5t4 35t9.5 38t19 34.5t31 30.5t46 19.5t64 8q55 0 89 -21t54 -67q36 88 135 88q32 0 57.5 -5t43.5 -17.5t30.5 -24.5t20.5 -35t12.5 -39.5t6.5 -48t2.5 -50t0.5 -55.5h-288v-39q0 -30 5 -55.5t16.5 -51.5t35 -41
t57.5 -15q55 0 83.5 31.5t27.5 84.5h63q-9 -164 -174 -164q-45 0 -80 15.5t-58 62.5q-26 -46 -55.5 -62t-84.5 -16zM222 38q13 0 25 2t21 5.5t16 7t13 9.5l10 10t7 10.5t4.5 9t3.5 8.5l2 5q12 30 12 148q0 120 -22 167t-92 47t-92 -47t-22 -167q0 -118 12 -148l2 -5
q2 -6 3.5 -8.5t4.5 -9t7 -10.5l10 -10t13 -9.5t16 -7t21 -5.5t25 -2zM386 288h228q0 92 -23 135.5t-91 43.5t-91 -43.5t-23 -135.5z" />
    <glyph glyph-name="Scaron" unicode="&#x160;" horiz-adv-x="500" 
d="M443 539h-65q-2 73 -27.5 108t-94.5 35q-62 0 -94.5 -25.5t-32.5 -86.5q0 -31 5.5 -52.5t19.5 -37t26.5 -24.5t39.5 -25.5t45 -29.5t51.5 -33.5t51.5 -33.5t38.5 -34.5t29.5 -51.5t9 -70q0 -192 -192 -192q-207 0 -198 217h66q0 -37 3.5 -60t15.5 -50t41 -40t75 -13
q125 0 125 128q0 18 -3.5 34t-7.5 27.5t-16 25t-18 20.5t-25.5 21t-27.5 19t-35 21t-36 22q-51 31 -81.5 56.5t-44.5 50.5t-17.5 43.5t-3.5 50.5q-1 90 51 133.5t145 43.5q103 0 142.5 -53.5t39.5 -143.5zM251 812l82 102h64l-113 -139h-67l-113 139h64z" />
    <glyph glyph-name="scaron" unicode="&#x161;" horiz-adv-x="389" 
d="M344 133q0 -70 -39 -106.5t-110 -36.5q-80 0 -116 39t-35 121h61q0 -57 19.5 -86t73.5 -29q86 0 86 89q0 36 -23.5 61.5t-57 41.5t-66.5 34t-56.5 50t-23.5 78q0 126 152 126q70 0 101 -40.5t31 -105.5h-59q-2 51 -21 74.5t-67 23.5q-33 0 -55 -20t-22 -53
q0 -34 23.5 -58.5t56.5 -40t66.5 -33t57 -50t23.5 -79.5zM196 595l82 102h64l-113 -139h-67l-113 139h64z" />
    <glyph glyph-name="Ydieresis" unicode="&#x178;" horiz-adv-x="500" 
d="M217 0v300l-204 422h72l165 -359l173 359h64l-206 -422v-300h-64zM139 788v101h64v-101h-64zM297 788v101h64v-101h-64z" />
    <glyph glyph-name="Zcaron" unicode="&#x17d;" 
d="M44 722h373v-71l-327 -597h330v-54h-396v71l330 597h-310v54zM223 812l82 102h64l-113 -139h-67l-113 139h64z" />
    <glyph glyph-name="zcaron" unicode="&#x17e;" horiz-adv-x="333" 
d="M28 0v49l210 408h-198v48h259v-50l-205 -407h210v-48h-276zM168 595l82 102h64l-113 -139h-67l-113 139h64z" />
    <glyph glyph-name="florin" unicode="&#x192;" 
d="M380 697l-9 -49q-18 6 -38 6q-17 0 -29.5 -6t-19.5 -14t-12 -22.5t-7 -24t-4 -26.5l-14 -101h94l-8 -48h-92l-57 -437q-4 -29 -7 -46t-12.5 -43.5t-22.5 -41t-37.5 -26t-57.5 -11.5q-8 0 -28 2l8 52q46 -4 66 21t29 90l56 440h-83l7 48h82q2 13 6 50t7 57t13 51
t23.5 47.5t38.5 29.5t59 13q12 0 49 -11z" />
    <glyph glyph-name="circumflex" unicode="&#x2c6;" horiz-adv-x="278" 
d="M139 660l-82 -102h-64l113 139h67l113 -139h-64z" />
    <glyph glyph-name="caron" unicode="&#x2c7;" horiz-adv-x="278" 
d="M140 595l82 102h64l-113 -139h-67l-113 139h64z" />
    <glyph glyph-name="uni02C9" unicode="&#x2c9;" horiz-adv-x="278" 
d="M9 648h260v-48h-260v48z" />
    <glyph glyph-name="breve" unicode="&#x2d8;" horiz-adv-x="278" 
d="M-5 697h39q15 -81 105 -81q85 0 107 81h37q-7 -61 -47 -95t-102 -34q-59 0 -96.5 35t-42.5 94z" />
    <glyph glyph-name="dotaccent" unicode="&#x2d9;" horiz-adv-x="278" 
d="M107 571v101h64v-101h-64z" />
    <glyph glyph-name="ring" unicode="&#x2da;" horiz-adv-x="278" 
d="M139 736q38 0 65 -27.5t27 -65.5t-27 -66t-65 -28t-65.5 28t-27.5 66t27.5 65.5t65.5 27.5zM139 701q-24 0 -41 -17t-17 -41q0 -23 17.5 -41t40.5 -18q22 0 39.5 18t17.5 41t-17 40.5t-40 17.5z" />
    <glyph glyph-name="ogonek" unicode="&#x2db;" horiz-adv-x="278" 
d="M143 0l50 2v-2q-48 -23 -68.5 -53.5t-20.5 -56.5q0 -23 18 -34.5t42 -11.5q13 0 64 17v-33q-31 -19 -74 -19q-55 0 -84.5 16t-29.5 66q0 35 27.5 63.5t75.5 45.5z" />
    <glyph glyph-name="tilde" unicode="&#x2dc;" horiz-adv-x="278" 
d="M21 595h-38q5 41 26 69q26 33 62 33q8 0 18.5 -3t17.5 -6t20 -9.5t18 -8.5l18 -9t18.5 -9t15.5 -6t16 -3q19 0 30 16t14 38h38q-2 -38 -23 -68q-22 -34 -59 -34q-9 0 -19.5 3t-18 6t-20.5 9.5t-18 8.5t-17.5 8.5t-19 9.5t-16 6t-17.5 3q-18 0 -30.5 -17t-15.5 -37z" />
    <glyph glyph-name="hungarumlaut" unicode="&#x2dd;" horiz-adv-x="278" 
d="M0 560l113 137h80l-143 -137h-50zM130 560l113 137h80l-143 -137h-50z" />
    <glyph glyph-name="uni03A9" unicode="&#x3a9;" horiz-adv-x="572" 
d="M163 51v3q-49 55 -80 138.5t-31 182.5q0 149 67 239t170 90t166 -92.5t63 -232.5q0 -102 -32 -187.5t-79 -137.5v-3h122v-51h-189v37q52 48 86.5 135.5t34.5 193.5q-1 69 -18.5 132t-58.5 108.5t-97 45.5q-80 0 -128.5 -81t-48.5 -206q0 -100 35.5 -192t84.5 -136v-37
h-188v51h121z" />
    <glyph glyph-name="uni03BC" unicode="&#x3bc;" 
d="M319 505h60v-505h-52v56h-2q-54 -66 -127 -66q-49 0 -73 18v-199h-60v696h60v-347q0 -120 84 -120q54 0 82 38t28 73v356z" />
    <glyph glyph-name="pi" unicode="&#x3c0;" horiz-adv-x="461" 
d="M435 462h-65v-324q0 -90 12 -138h-54q-14 26 -14 133v329h-148q-4 -112 -21.5 -253t-39.5 -209h-56q24 77 41 213.5t19 248.5q-58 0 -88 -10l-10 39q35 24 115 24h315z" />
    <glyph glyph-name="uni2010" unicode="&#x2010;" horiz-adv-x="278" 
d="M240 238h-202v57h202v-57z" />
    <glyph glyph-name="endash" unicode="&#x2013;" horiz-adv-x="500" 
d="M500 260h-500v48h500v-48z" />
    <glyph glyph-name="emdash" unicode="&#x2014;" horiz-adv-x="1000" 
d="M0 260v48h1000v-48h-1000z" />
    <glyph glyph-name="quoteleft" unicode="&#x2018;" horiz-adv-x="222" 
d="M167 722l-40 -181h-73l60 181h53z" />
    <glyph glyph-name="quoteright" unicode="&#x2019;" horiz-adv-x="222" 
d="M54 541l40 181h73l-60 -181h-53z" />
    <glyph glyph-name="quotesinglbase" unicode="&#x201a;" horiz-adv-x="222" 
d="M54 -105l40 181h73l-60 -181h-53z" />
    <glyph glyph-name="quotedblleft" unicode="&#x201c;" horiz-adv-x="389" 
d="M177 722l-40 -181h-73l60 181h53zM325 722l-40 -181h-73l60 181h53z" />
    <glyph glyph-name="quotedblright" unicode="&#x201d;" horiz-adv-x="389" 
d="M64 541l40 181h73l-60 -181h-53zM212 541l40 181h73l-60 -181h-53z" />
    <glyph glyph-name="quotedblbase" unicode="&#x201e;" horiz-adv-x="389" 
d="M64 -105l40 181h73l-60 -181h-53zM212 -105l40 181h73l-60 -181h-53z" />
    <glyph glyph-name="dagger" unicode="&#x2020;" 
d="M252 501v-501h-60v501h-141v48h141v173h60v-173h141v-48h-141z" />
    <glyph glyph-name="daggerdbl" unicode="&#x2021;" 
d="M252 722v-163h141v-48h-141v-300h141v-48h-141v-163h-60v163h-141v48h141v300h-141v48h141v163h60z" />
    <glyph glyph-name="bullet" unicode="&#x2022;" horiz-adv-x="606" 
d="M483 360q0 -73 -54 -126.5t-127 -53.5t-126 53.5t-53 126.5q0 74 53 127t126 53q74 0 127.5 -53t53.5 -127z" />
    <glyph glyph-name="ellipsis" unicode="&#x2026;" horiz-adv-x="1000" 
d="M130 0v76h74v-76h-74zM463 0v76h74v-76h-74zM796 0v76h74v-76h-74z" />
    <glyph glyph-name="perthousand" unicode="&#x2030;" horiz-adv-x="889" 
d="M759 -11q-37 0 -61.5 13.5t-37 39.5t-17 53.5t-4.5 63.5q0 30 2 51.5t9 45.5t20 39t35.5 25t53.5 10t53.5 -10t35.5 -25t20 -39t9 -45.5t2 -51.5q0 -36 -4.5 -63.5t-17 -53.5t-37 -39.5t-61.5 -13.5zM759 37q23 0 38 11.5t21 33t7.5 37t1.5 38.5q0 125 -68 125t-68 -125
q0 -23 1.5 -38.5t7.5 -37t21 -33t38 -11.5zM452 -11q-37 0 -61.5 13.5t-37 39.5t-17 53.5t-4.5 63.5q0 30 2 51.5t9 45.5t20 39t35.5 25t53.5 10t53.5 -10t35.5 -25t20 -39t9 -45.5t2 -51.5q0 -36 -4.5 -63.5t-17 -53.5t-37 -39.5t-61.5 -13.5zM452 37q23 0 38 11.5t21 33
t7.5 37t1.5 38.5q0 125 -68 125t-68 -125q0 -23 1.5 -38.5t7.5 -37t21 -33t38 -11.5zM130 366q-37 0 -61.5 13.5t-37 39.5t-17 53.5t-4.5 63.5q0 30 2 51.5t9 45.5t20 39t35.5 25t53.5 10t53.5 -10t35.5 -25t20 -39t9 -45.5t2 -51.5q0 -36 -4.5 -63.5t-17 -53.5t-37 -39.5
t-61.5 -13.5zM130 414q23 0 38 11.5t21 33t7.5 37t1.5 38.5q0 125 -68 125t-68 -125q0 -23 1.5 -38.5t7.5 -37t21 -33t38 -11.5zM157 -41h-43l306 763h41z" />
    <glyph glyph-name="guilsinglleft" unicode="&#x2039;" horiz-adv-x="222" 
d="M127 90l-87 194l90 194h52l-78 -194l76 -194h-53z" />
    <glyph glyph-name="guilsinglright" unicode="&#x203a;" horiz-adv-x="222" 
d="M95 90h-53l76 194l-78 194h52l90 -194z" />
    <glyph glyph-name="fraction" unicode="&#x2044;" horiz-adv-x="167" 
d="M-163 -29l437 751h55l-436 -751h-56z" />
    <glyph glyph-name="Euro" unicode="&#x20ac;" 
d="M24 322h50v65h-62l12 54h52v65q0 201 174 201q90 0 130.5 -45.5t40.5 -132.5h-60q0 66 -25.5 94.5t-82.5 28.5q-56 0 -84.5 -32.5t-28.5 -106.5v-72h201l-11 -54h-191v-65h177l-12 -54h-164v-90q0 -137 116 -137q57 0 82 29t25 92h57q0 -177 -166 -177q-179 0 -179 192
v91h-63z" />
    <glyph glyph-name="afii61289" unicode="&#x2113;" horiz-adv-x="397" 
d="M348 126l28 -24q-52 -108 -147 -108q-134 0 -136 194v15q-8 -7 -23.5 -22.5t-23.5 -22.5l-20 35q47 45 67 68v274q0 122 36 175.5t88 53.5q48 0 73 -41t25 -110q0 -170 -168 -361l1 -38q0 -173 91 -173q63 0 109 85zM147 538v-222q129 163 129 297q0 104 -59 104
q-29 0 -49.5 -43.5t-20.5 -135.5z" />
    <glyph glyph-name="trademark" unicode="&#x2122;" horiz-adv-x="722" 
d="M114 289v393h-109v40h270v-40h-109v-393h-52zM371 722l137 -354h2l134 354h68v-433h-52v326h-2l-127 -326h-48l-131 326h-2v-326h-52v433h73z" />
    <glyph glyph-name="Omega" unicode="&#x2126;" horiz-adv-x="572" 
d="M163 51v3q-49 55 -80 138.5t-31 182.5q0 149 67 239t170 90t166 -92.5t63 -232.5q0 -102 -32 -187.5t-79 -137.5v-3h122v-51h-189v37q52 48 86.5 135.5t34.5 193.5q-1 69 -18.5 132t-58.5 108.5t-97 45.5q-80 0 -128.5 -81t-48.5 -206q0 -100 35.5 -192t84.5 -136v-37
h-188v51h121z" />
    <glyph glyph-name="estimated" unicode="&#x212e;" horiz-adv-x="867" 
d="M832 338h-646q-6 0 -6 -4v-196q0 -9 9 -22q103 -106 244 -106q154 0 258 119h57q-54 -64 -137.5 -101.5t-178.5 -37.5q-165 0 -281.5 105t-116.5 253q0 149 116.5 254.5t281.5 105.5q166 0 283 -105.5t117 -254.5v-10zM686 364v197q0 13 -10 23q-104 102 -243 102
q-140 0 -243 -105q-10 -10 -10 -25v-192q0 -6 6 -6h495q5 0 5 6z" />
    <glyph glyph-name="partialdiff" unicode="&#x2202;" horiz-adv-x="445" 
d="M85 681l-21 46q58 52 133 52q85 0 145 -92.5t60 -278.5q0 -194 -54.5 -304t-156.5 -110q-73 0 -113 62.5t-40 161.5q0 113 53 184.5t124 71.5q47 0 81 -25.5t49 -55.5h1q1 10 1 38q0 130 -45 213t-110 83q-61 0 -107 -46zM196 45h1q57 0 96 79.5t47 198.5
q-12 39 -43.5 69.5t-74.5 30.5q-53 0 -90 -60t-37 -145q0 -80 27 -126.5t74 -46.5z" />
    <glyph glyph-name="uni2206" unicode="&#x2206;" horiz-adv-x="521" 
d="M28 0v42l202 669h63l200 -669v-42h-465zM85 49h348l-120 400q-6 23 -26.5 87t-25.5 91h-4q-4 -25 -23 -86t-24 -81z" />
    <glyph glyph-name="product" unicode="&#x220f;" horiz-adv-x="565" 
d="M540 638h-85v-734h-56v734h-234v-734h-56v734h-85v55h516v-55z" />
    <glyph glyph-name="summation" unicode="&#x2211;" horiz-adv-x="452" 
d="M433 -96h-412v42l224 352l-214 353v42h387v-51h-310v-4l201 -331l-219 -342v-3h343v-58z" />
    <glyph glyph-name="minus" unicode="&#x2212;" 
d="M424 279v-52h-404v52h404z" />
    <glyph glyph-name="uni2215" unicode="&#x2215;" horiz-adv-x="167" 
d="M-163 -29l437 751h55l-436 -751h-56z" />
    <glyph glyph-name="uni2219" unicode="&#x2219;" horiz-adv-x="222" 
d="M74 215v76h74v-76h-74z" />
    <glyph glyph-name="radical" unicode="&#x221a;" horiz-adv-x="479" 
d="M471 824l-182 -975h-51l-135 468l-62 -23l-12 38l112 42l106 -363q8 -34 15 -77h1q2 14 11 73l155 817h42z" />
    <glyph glyph-name="infinity" unicode="&#x221e;" horiz-adv-x="674" 
d="M630 290v-1q0 -60 -39 -98.5t-93 -38.5q-40 0 -76 24.5t-84 78.5q-29 -33 -48.5 -51.5t-51.5 -35t-65 -16.5q-54 0 -92 38.5t-38 95.5q0 59 38.5 98t96.5 39q46 0 83.5 -27.5t79.5 -77.5q54 60 80 78q40 27 84 27q56 0 90.5 -37t34.5 -96zM178 190h1q14 0 28 5t24 10
t25 18t20 18.5t21.5 23t18.5 19.5q-29 35 -43 50.5t-42.5 33t-58.5 17.5q-40 0 -63.5 -29t-23.5 -71q0 -40 26 -67.5t67 -27.5zM500 385h-1q-17 0 -33.5 -6.5t-32.5 -19.5t-26 -23t-25.5 -27t-19.5 -21q51 -55 78.5 -76.5t60.5 -21.5q40 0 64 29t24 67q0 47 -25 73t-64 26z
" />
    <glyph glyph-name="integral" unicode="&#x222b;" horiz-adv-x="305" 
d="M288 833l-11 -42q-14 8 -30 8q-25 0 -43 -24q-28 -40 -28 -179q0 -76 5 -251t5 -255q0 -140 -39 -202q-27 -45 -81 -45q-30 0 -51 14l11 45q23 -10 36 -10q24 0 41 25q28 45 28 173q0 81 -5.5 258t-5.5 253q0 153 45 206q32 38 79 38q26 0 44 -12z" />
    <glyph glyph-name="approxequal" unicode="&#x2248;" horiz-adv-x="468" 
d="M404 408l26 -20q-37 -86 -108 -86q-33 0 -97 37q-48 30 -78 30q-27 0 -45.5 -17t-37.5 -49l-27 19q41 86 115 86q12 0 23 -2t22.5 -7.5t17.5 -8.5t18.5 -10.5t13.5 -8.5q54 -30 79 -30q42 0 78 67zM404 263l26 -20q-38 -85 -108 -85q-33 0 -97 36q-49 31 -78 31
q-45 0 -83 -67l-27 19q40 86 115 86q15 0 30.5 -4.5t23.5 -8.5t23.5 -13t17.5 -10q3 -2 15.5 -9t17 -9t14 -6t17 -5.5t15.5 -1.5q24 0 42 16t36 51z" />
    <glyph glyph-name="notequal" unicode="&#x2260;" horiz-adv-x="468" 
d="M331 470l-37 -85h130v-41h-146l-56 -126h202v-40h-218l-44 -99l-31 14l37 85h-124v40h141l55 126h-196v41h212l44 99z" />
    <glyph glyph-name="lessequal" unicode="&#x2264;" horiz-adv-x="468" 
d="M422 111l-374 202v42l374 202v-50l-331 -171v-2l331 -173v-50zM424 31h-380v42h380v-42z" />
    <glyph glyph-name="greaterequal" unicode="&#x2265;" horiz-adv-x="468" 
d="M49 557l373 -202v-42l-373 -202v50l330 172v2l-330 172v50zM424 31h-380v42h380v-42z" />
    <glyph glyph-name="lozenge" unicode="&#x25ca;" horiz-adv-x="479" 
d="M431 346l-169 -381h-48l-167 381l169 382h48zM377 345l-121 275q-9 21 -16 53h-2q-13 -46 -16 -53l-121 -272l122 -277q9 -25 14 -52h4q4 26 15 51z" />
    <glyph glyph-name="fi" unicode="&#xfb01;" 
d="M369 0h-60v505h60v-505zM376 646h-74v76h74v-76zM100 0v457h-81v48h81v85q0 136 129 136q4 0 34 -4v-50h-45q-20 0 -33 -7.5t-18 -22.5t-6 -25t-1 -26v-86h102v-48h-102v-457h-60z" />
    <glyph glyph-name="fl" unicode="&#xfb02;" 
d="M100 0v457h-81v48h81v85q0 136 129 136q4 0 34 -4v-50h-45q-20 0 -33 -7.5t-18 -22.5t-6 -25t-1 -26v-86h102v-48h-102v-457h-60zM368 0h-60v722h60v-722z" />
    <glyph glyph-name="a.superior" horiz-adv-x="266" 
d="M200 527v55h-19t-21 -0.5t-20 -1.5t-21 -3t-17.5 -5t-17 -8.5l-12 -12t-9 -16.5t-2.5 -22q0 -29 15 -46t44 -17q33 0 56.5 23.5t23.5 53.5zM244 428h-39v39h-2q-32 -47 -93 -47q-44 0 -67.5 24t-23.5 67q0 19 5.5 34.5t13.5 25.5t21.5 17.5t25 11.5t30 6.5t29.5 3t30 1.5
t26 1v24q0 36 -14 53t-51 17q-64 0 -64 -50h-42q2 41 32.5 60.5t76.5 19.5q102 0 102 -80v-152q0 -41 4 -76z" />
    <glyph glyph-name="o.superior" horiz-adv-x="266" 
d="M132 420q-18 0 -33.5 3t-26.5 7.5t-19.5 13.5t-14 15.5t-9.5 19t-6 19.5t-3 21.5t-1 20.5v20.5v17.5q0 1 -0.5 19t0 23.5t2 22.5t4.5 24t8 20.5t14 20t20.5 14.5t28 11t36.5 3q18 0 33.5 -3t26.5 -7.5t20 -13.5t14.5 -15.5t9.5 -19t6 -20t3 -21.5t1 -20v-20.5v-17.5
q0 -1 0.5 -19.5t0 -23.5t-2 -22.5t-4.5 -24t-8.5 -20.5t-14 -20t-20 -14t-28.5 -11t-37 -3zM132 450q26 0 42 9t22.5 30t8 38t1.5 51q0 27 -0.5 41t-4.5 33.5t-11.5 29t-22 17t-35.5 7.5t-35 -7.5t-21.5 -17t-11.5 -29t-4.5 -33.5t-0.5 -41q0 -34 1.5 -51t8 -38t22 -30
t41.5 -9z" />
    <glyph glyph-name="one.superior" horiz-adv-x="266" 
d="M49 592v44q56 35 82 65h42v-418h-45v368q-34 -31 -79 -59z" />
    <glyph glyph-name="two.superior" horiz-adv-x="266" 
d="M241 323v-40h-231v41q22 31 55 76t51 70t37.5 55t28 51t8.5 37q0 32 -17 43.5t-48 11.5q-66 0 -66 -69h-47q0 58 33 83.5t80 25.5q115 0 115 -87q0 -44 -28.5 -91t-147.5 -207h177z" />
    <glyph glyph-name="three.superior" horiz-adv-x="266" 
d="M100 484v40q50 -4 70 13t20 64q0 30 -16.5 48.5t-46.5 18.5q-63 0 -60 -69h-50q-3 48 25 78.5t80 30.5q59 0 88.5 -24t29.5 -78q0 -91 -71 -102v-2q76 -11 76 -105q0 -58 -29 -89t-84 -31q-61 0 -92 27t-29 82h50q-1 -69 65 -69q36 0 52.5 20.5t16.5 51.5
q0 56 -20.5 77.5t-74.5 17.5z" />
    </font>
</defs>
</svg>
